bitshift.ufo
<glyph name="one" format="1">
  <advance width="747"/>
  <unicode hex="0031"/>
  <outline>
    <contour>
      <point x="460" y="475" type="line"/>
      <point x="739" y="475" type="line"/>
      <point x="514" y="311" type="line"/>
      <point x="600" y="46" type="line"/>
      <point x="374" y="210" type="line"/>
      <point x="149" y="46" type="line"/>
      <point x="235" y="311" type="line"/>
      <point x="9" y="475" type="line"/>
      <point x="288" y="475" type="line"/>
      <point x="374" y="740" type="line"/>
    </contour>
    <contour>
      <point x="375" y="359" type="line"/>
      <point x="684" y="455" type="line"/>
      <point x="443" y="455" type="line"/>
    </contour>
    <contour>
      <point x="303" y="455" type="line"/>
      <point x="374" y="359" type="line"/>
      <point x="374" y="685" type="line"/>
    </contour>
    <contour>
      <point x="375" y="357" type="line"/>
      <point x="567" y="91" type="line"/>
      <point x="489" y="319" type="line"/>
    </contour>
    <contour>
      <point x="259" y="321" type="line"/>
      <point x="373" y="358" type="line"/>
      <point x="63" y="459" type="line"/>
    </contour>
    <contour>
      <point x="181" y="93" type="line"/>
      <point x="374" y="238" type="line"/>
      <point x="374" y="357" type="line"/>
    </contour>
  </outline>
</glyph>
<glyph name="two" format="1">
  <advance width="747"/>
  <unicode hex="0032"/>
  <outline>
    <contour>
      <point x="279" y="342" type="curve" smooth="yes"/>
      <point x="361" y="342" type="line" smooth="yes"/>
      <point x="375" y="342"/>
      <point x="386" y="331"/>
      <point x="386" y="317" type="curve" smooth="yes"/>
      <point x="386" y="24" type="line" smooth="yes"/>
      <point x="386" y="10"/>
      <point x="375" y="-1"/>
      <point x="361" y="-1" type="curve" smooth="yes"/>
      <point x="279" y="-1" type="line" smooth="yes"/>
      <point x="266" y="-1"/>
      <point x="254" y="10"/>
      <point x="254" y="24" type="curve" smooth="yes"/>
      <point x="254" y="317" type="line" smooth="yes"/>
      <point x="254" y="331"/>
      <point x="266" y="342"/>
    </contour>
    <contour>
      <point x="316" y="200" type="line"/>
      <point x="493" y="597" type="line"/>
      <point x="416" y="597" type="line" smooth="yes"/>
      <point x="361" y="597"/>
      <point x="316" y="552"/>
      <point x="316" y="497" type="curve" smooth="yes"/>
    </contour>
    <contour>
      <point x="386" y="209" type="line"/>
      <point x="493" y="527" type="line"/>
      <point x="411" y="527" type="line" smooth="yes"/>
      <point x="397" y="527"/>
      <point x="386" y="516"/>
      <point x="386" y="502" type="curve" smooth="yes"/>
    </contour>
  </outline>
</glyph>
<glyph name="three" format="1">
  <advance width="747"/>
  <unicode hex="0033"/>
  <outline>
    <contour>
      <point x="333" y="441" type="curve" smooth="yes"/>
      <point x="415" y="441" type="line" smooth="yes"/>
      <point x="428" y="441"/>
      <point x="440" y="430"/>
      <point x="440" y="416" type="curve" smooth="yes"/>
      <point x="440" y="332" type="line" smooth="yes"/>
      <point x="440" y="318"/>
      <point x="428" y="307"/>
      <point x="415" y="307" type="curve" smooth="yes"/>
      <point x="333" y="307" type="line" smooth="yes"/>
      <point x="319" y="307"/>
      <point x="308" y="318"/>
      <point x="308" y="332" type="curve" smooth="yes"/>
      <point x="308" y="416" type="line" smooth="yes"/>
      <point x="308" y="430"/>
      <point x="319" y="441"/>
    </contour>
  </outline>
</glyph>
<glyph name="four" format="1">
  <advance width="747"/>
  <unicode hex="0034"/>
  <outline>
    <contour>
      <point x="704" y="459" type="curve" smooth="yes"/>
      <point x="705" y="453"/>
      <point x="700" y="443"/>
      <point x="693" y="438" type="curve" smooth="yes"/>
      <point x="512" y="306" type="line"/>
      <point x="582" y="93" type="line" smooth="yes"/>
      <point x="585" y="84"/>
      <point x="583" y="73"/>
      <point x="578" y="70" type="curve" smooth="yes"/>
      <point x="573" y="66"/>
      <point x="562" y="68"/>
      <point x="555" y="74" type="curve" smooth="yes"/>
      <point x="374" y="205" type="line"/>
      <point x="193" y="74" type="line" smooth="yes"/>
      <point x="185" y="69"/>
      <point x="174" y="67"/>
      <point x="170" y="70" type="curve" smooth="yes"/>
      <point x="165" y="74"/>
      <point x="163" y="85"/>
      <point x="166" y="94" type="curve" smooth="yes"/>
      <point x="235" y="306" type="line"/>
      <point x="54" y="437" type="line" smooth="yes"/>
      <point x="47" y="443"/>
      <point x="42" y="452"/>
      <point x="44" y="458" type="curve" smooth="yes"/>
      <point x="45" y="464"/>
      <point x="56" y="469"/>
      <point x="65" y="469" type="curve" smooth="yes"/>
      <point x="288" y="469" type="line"/>
      <point x="357" y="681" type="line" smooth="yes"/>
      <point x="360" y="690"/>
      <point x="368" y="698"/>
      <point x="374" y="698" type="curve" smooth="yes"/>
      <point x="380" y="698"/>
      <point x="388" y="690"/>
      <point x="390" y="681" type="curve" smooth="yes"/>
      <point x="459" y="470" type="line"/>
      <point x="683" y="470" type="line" smooth="yes"/>
      <point x="692" y="470"/>
      <point x="702" y="465"/>
    </contour>
    <contour>
      <point x="474" y="342" type="curve" smooth="yes"/>
      <point x="474" y="398"/>
      <point x="429" y="443"/>
      <point x="373" y="443" type="curve" smooth="yes"/>
      <point x="317" y="443"/>
      <point x="271" y="398"/>
      <point x="271" y="342" type="curve" smooth="yes"/>
      <point x="271" y="286"/>
      <point x="317" y="240"/>
      <point x="373" y="240" type="curve" smooth="yes"/>
      <point x="429" y="240"/>
      <point x="474" y="286"/>
    </contour>
  </outline>
</glyph>
<glyph name="five" format="1">
  <advance width="1000"/>
  <unicode hex="0035"/>
  <outline>
    <contour>
      <point x="654" y="30" type="line"/>
      <point x="654" y="246" type="line" smooth="yes"/>
      <point x="654" y="253"/>
      <point x="648" y="258"/>
      <point x="642" y="258" type="curve" smooth="yes"/>
      <point x="288" y="258" type="line" smooth="yes"/>
      <point x="283" y="258"/>
      <point x="280" y="254"/>
      <point x="280" y="250" type="curve" smooth="yes"/>
      <point x="280" y="28" type="line"/>
    </contour>
    <contour>
      <point x="429" y="58" type="curve" smooth="yes"/>
      <point x="344" y="58" type="line" smooth="yes"/>
      <point x="340" y="58"/>
      <point x="336" y="62"/>
      <point x="336" y="66" type="curve" smooth="yes"/>
      <point x="336" y="240" type="line" smooth="yes"/>
      <point x="336" y="244"/>
      <point x="340" y="248"/>
      <point x="344" y="248" type="curve" smooth="yes"/>
      <point x="429" y="248" type="line" smooth="yes"/>
      <point x="433" y="248"/>
      <point x="437" y="244"/>
      <point x="437" y="240" type="curve" smooth="yes"/>
      <point x="437" y="65" type="line" smooth="yes"/>
      <point x="437" y="60"/>
      <point x="433" y="58"/>
    </contour>
    <contour>
      <point x="429" y="64" type="line" smooth="yes"/>
      <point x="431" y="64"/>
      <point x="431" y="65"/>
      <point x="431" y="65" type="curve" smooth="yes"/>
      <point x="431" y="240" type="line" smooth="yes"/>
      <point x="431" y="241"/>
      <point x="430" y="242"/>
      <point x="429" y="242" type="curve" smooth="yes"/>
      <point x="344" y="242" type="line" smooth="yes"/>
      <point x="343" y="242"/>
      <point x="342" y="241"/>
      <point x="342" y="240" type="curve" smooth="yes"/>
      <point x="342" y="66" type="line" smooth="yes"/>
      <point x="342" y="65"/>
      <point x="343" y="64"/>
      <point x="344" y="64" type="curve" smooth="yes"/>
    </contour>
    <contour>
      <point x="762" y="319" type="line" smooth="yes"/>
      <point x="770" y="319"/>
      <point x="776" y="326"/>
      <point x="776" y="333" type="curve" smooth="yes"/>
      <point x="776" y="749" type="line"/>
      <point x="179" y="749" type="line"/>
      <point x="179" y="333" type="line" smooth="yes"/>
      <point x="179" y="325"/>
      <point x="185" y="319"/>
      <point x="193" y="319" type="curve" smooth="yes"/>
    </contour>
    <contour>
      <point x="127" y="675" type="line"/>
      <point x="127" y="708" type="line"/>
      <point x="160" y="708" type="line"/>
      <point x="160" y="675" type="line"/>
    </contour>
    <contour>
      <point x="795" y="675" type="line"/>
      <point x="795" y="708" type="line"/>
      <point x="827" y="708" type="line"/>
      <point x="827" y="675" type="line"/>
    </contour>
    <contour>
      <point x="787" y="126" type="line"/>
      <point x="804" y="126" type="line"/>
      <point x="804" y="105" type="line"/>
      <point x="811" y="105" type="line"/>
      <point x="795" y="70" type="line"/>
      <point x="780" y="105" type="line"/>
      <point x="787" y="105" type="line"/>
    </contour>
    <contour>
      <point x="217" y="676" type="line"/>
      <point x="738" y="676" type="line"/>
      <point x="738" y="670" type="line"/>
      <point x="217" y="670" type="line"/>
    </contour>
    <contour>
      <point x="727" y="25" type="line"/>
      <point x="660" y="25" type="line"/>
      <point x="660" y="22" type="line"/>
      <point x="274" y="22" type="line"/>
      <point x="274" y="37" type="line"/>
      <point x="266" y="37" type="line"/>
      <point x="257" y="25" type="line"/>
      <point x="155" y="25" type="line"/>
      <point x="110" y="77" type="line"/>
      <point x="110" y="760" type="line"/>
      <point x="179" y="760" type="line"/>
      <point x="179" y="756" type="line"/>
      <point x="776" y="756" type="line"/>
      <point x="776" y="760" type="line"/>
      <point x="846" y="760" type="line"/>
      <point x="846" y="25" type="line"/>
      <point x="744" y="25" type="line"/>
      <point x="744" y="32" type="line"/>
      <point x="727" y="32" type="line"/>
    </contour>
    <contour>
      <point x="755" y="31" type="line"/>
      <point x="840" y="31" type="line"/>
      <point x="840" y="754" type="line"/>
      <point x="782" y="754" type="line"/>
      <point x="782" y="333" type="line" smooth="yes"/>
      <point x="782" y="327"/>
      <point x="777" y="313"/>
      <point x="762" y="313" type="curve" smooth="yes"/>
      <point x="193" y="313" type="line" smooth="yes"/>
      <point x="182" y="313"/>
      <point x="173" y="321"/>
      <point x="173" y="333" type="curve" smooth="yes"/>
      <point x="173" y="754" type="line"/>
      <point x="116" y="754" type="line"/>
      <point x="116" y="80" type="line"/>
      <point x="158" y="31" type="line"/>
      <point x="254" y="31" type="line"/>
      <point x="263" y="43" type="line"/>
      <point x="274" y="43" type="line"/>
      <point x="274" y="250" type="line" smooth="yes"/>
      <point x="274" y="258"/>
      <point x="280" y="264"/>
      <point x="288" y="264" type="curve" smooth="yes"/>
      <point x="741" y="264" type="line" smooth="yes"/>
      <point x="749" y="264"/>
      <point x="756" y="258"/>
      <point x="756" y="250" type="curve" smooth="yes"/>
    </contour>
    <contour>
      <point x="721" y="38" type="line"/>
      <point x="750" y="38" type="line"/>
      <point x="750" y="250" type="line" smooth="yes"/>
      <point x="750" y="254"/>
      <point x="745" y="258"/>
      <point x="741" y="258" type="curve" smooth="yes"/>
      <point x="656" y="258" type="line"/>
      <point x="658" y="255"/>
      <point x="660" y="251"/>
      <point x="660" y="246" type="curve" smooth="yes"/>
      <point x="660" y="31" type="line"/>
      <point x="721" y="31" type="line"/>
    </contour>
    <contour>
      <point x="217" y="636" type="line"/>
      <point x="738" y="636" type="line"/>
      <point x="738" y="630" type="line"/>
      <point x="217" y="630" type="line"/>
    </contour>
    <contour>
      <point x="217" y="597" type="line"/>
      <point x="738" y="597" type="line"/>
      <point x="738" y="591" type="line"/>
      <point x="217" y="591" type="line"/>
    </contour>
    <contour>
      <point x="217" y="557" type="line"/>
      <point x="738" y="557" type="line"/>
      <point x="738" y="551" type="line"/>
      <point x="217" y="551" type="line"/>
    </contour>
  </outline>
</glyph>
<glyph name="B" format="1">
  <advance width="427"/>
  <unicode hex="0042"/>
  <outline>
    <contour>
      <point x="386" y="277" type="curve" smooth="yes"/>
      <point x="386" y="99" type="line" smooth="yes"/>
      <point x="385" y="44"/>
      <point x="341" y="-1"/>
      <point x="286" y="-1" type="curve" smooth="yes"/>
      <point x="240" y="-1" type="line"/>
      <point x="72" y="-1" type="line" smooth="yes"/>
      <point x="58" y="-1"/>
      <point x="46" y="10"/>
      <point x="46" y="24" type="curve" smooth="yes"/>
      <point x="46" y="317" type="line" smooth="yes"/>
      <point x="46" y="331"/>
      <point x="57" y="342"/>
      <point x="71" y="342" type="curve" smooth="yes"/>
      <point x="108" y="342" type="line"/>
      <point x="108" y="463" type="line"/>
      <point x="71" y="463" type="line" smooth="yes"/>
      <point x="57" y="463"/>
      <point x="46" y="475"/>
      <point x="46" y="488" type="curve" smooth="yes"/>
      <point x="46" y="571" type="line" smooth="yes"/>
      <point x="46" y="585"/>
      <point x="57" y="596"/>
      <point x="71" y="596" type="curve" smooth="yes"/>
      <point x="153" y="596" type="line" smooth="yes"/>
      <point x="162" y="596"/>
      <point x="170" y="591"/>
      <point x="174" y="584" type="curve"/>
      <point x="189" y="592"/>
      <point x="201" y="596"/>
      <point x="219" y="596" type="curve" smooth="yes"/>
      <point x="262" y="596" type="line" smooth="yes"/>
      <point x="317" y="596"/>
      <point x="361" y="552"/>
      <point x="362" y="497" type="curve" smooth="yes"/>
      <point x="362" y="327" type="line" smooth="yes"/>
      <point x="362" y="313"/>
      <point x="350" y="302"/>
      <point x="337" y="302" type="curve" smooth="yes"/>
      <point x="362" y="302" type="line" smooth="yes"/>
      <point x="376" y="302"/>
      <point x="386" y="291"/>
    </contour>
    <contour>
      <point x="179" y="342" type="line"/>
      <point x="292" y="342" type="line"/>
      <point x="292" y="502" type="line" smooth="yes"/>
      <point x="292" y="516"/>
      <point x="281" y="527"/>
      <point x="267" y="527" type="curve" smooth="yes"/>
      <point x="204" y="527" type="line" smooth="yes"/>
      <point x="190" y="527"/>
      <point x="179" y="516"/>
      <point x="179" y="502" type="curve" smooth="yes"/>
    </contour>
    <contour>
      <point x="317" y="95" type="curve" smooth="yes"/>
      <point x="317" y="223" type="line"/>
      <point x="280" y="223" type="line" smooth="yes"/>
      <point x="266" y="223"/>
      <point x="255" y="234"/>
      <point x="255" y="248" type="curve" smooth="yes"/>
      <point x="254" y="267" type="line" smooth="yes"/>
      <point x="254" y="281"/>
      <point x="243" y="292"/>
      <point x="229" y="292" type="curve" smooth="yes"/>
      <point x="179" y="292" type="line"/>
      <point x="179" y="95" type="line" smooth="yes"/>
      <point x="179" y="81"/>
      <point x="189" y="70"/>
      <point x="203" y="70" type="curve" smooth="yes"/>
      <point x="292" y="70" type="line" smooth="yes"/>
      <point x="305" y="70"/>
      <point x="317" y="79"/>
    </contour>
  </outline>
</glyph>
<glyph name="C" format="1">
  <advance width="414"/>
  <unicode hex="0043"/>
  <outline>
    <contour>
      <point x="386" y="108" type="curve" smooth="yes"/>
      <point x="386" y="24" type="line" smooth="yes"/>
      <point x="386" y="10"/>
      <point x="375" y="-1"/>
      <point x="361" y="-1" type="curve" smooth="yes"/>
      <point x="72" y="-1" type="line" smooth="yes"/>
      <point x="58" y="-1"/>
      <point x="47" y="10"/>
      <point x="47" y="24" type="curve" smooth="yes"/>
      <point x="47" y="317" type="line" smooth="yes"/>
      <point x="47" y="331"/>
      <point x="58" y="342"/>
      <point x="72" y="342" type="curve" smooth="yes"/>
      <point x="109" y="342" type="line"/>
      <point x="109" y="497" type="line" smooth="yes"/>
      <point x="109" y="552"/>
      <point x="154" y="597"/>
      <point x="209" y="597" type="curve" smooth="yes"/>
      <point x="287" y="597" type="line" smooth="yes"/>
      <point x="342" y="597"/>
      <point x="386" y="552"/>
      <point x="386" y="497" type="curve" smooth="yes"/>
      <point x="386" y="400" type="line" smooth="yes"/>
      <point x="386" y="387"/>
      <point x="375" y="375"/>
      <point x="361" y="375" type="curve" smooth="yes"/>
      <point x="343" y="375" type="line" smooth="yes"/>
      <point x="329" y="375"/>
      <point x="317" y="387"/>
      <point x="317" y="400" type="curve" smooth="yes"/>
      <point x="317" y="502" type="line" smooth="yes"/>
      <point x="317" y="516"/>
      <point x="306" y="527"/>
      <point x="292" y="527" type="curve" smooth="yes"/>
      <point x="204" y="527" type="line" smooth="yes"/>
      <point x="190" y="527"/>
      <point x="179" y="516"/>
      <point x="179" y="502" type="curve" smooth="yes"/>
      <point x="179" y="49" type="line"/>
      <point x="229" y="49" type="line" smooth="yes"/>
      <point x="243" y="49"/>
      <point x="254" y="60"/>
      <point x="254" y="74" type="curve" smooth="yes"/>
      <point x="254" y="108" type="line" smooth="yes"/>
      <point x="254" y="122"/>
      <point x="265" y="133"/>
      <point x="279" y="133" type="curve" smooth="yes"/>
      <point x="361" y="133" type="line" smooth="yes"/>
      <point x="375" y="133"/>
      <point x="386" y="122"/>
    </contour>
  </outline>
</glyph>
<glyph name="D" format="1">
  <advance width="429"/>
  <unicode hex="0044"/>
  <outline>
    <contour>
      <point x="386" y="497" type="curve" smooth="yes"/>
      <point x="386" y="99" type="line" smooth="yes"/>
      <point x="386" y="44"/>
      <point x="341" y="-1"/>
      <point x="286" y="-1" type="curve" smooth="yes"/>
      <point x="209" y="-1" type="line" smooth="yes"/>
      <point x="194" y="-1"/>
      <point x="180" y="3"/>
      <point x="168" y="8" type="curve"/>
      <point x="164" y="3"/>
      <point x="160" y="-1"/>
      <point x="154" y="-1" type="curve" smooth="yes"/>
      <point x="72" y="-1" type="line" smooth="yes"/>
      <point x="58" y="-1"/>
      <point x="46" y="10"/>
      <point x="46" y="24" type="curve" smooth="yes"/>
      <point x="46" y="317" type="line" smooth="yes"/>
      <point x="46" y="331"/>
      <point x="58" y="342"/>
      <point x="72" y="342" type="curve" smooth="yes"/>
      <point x="109" y="342" type="line"/>
      <point x="109" y="463" type="line"/>
      <point x="71" y="463" type="line" smooth="yes"/>
      <point x="57" y="463"/>
      <point x="46" y="475"/>
      <point x="46" y="488" type="curve" smooth="yes"/>
      <point x="46" y="572" type="line" smooth="yes"/>
      <point x="46" y="586"/>
      <point x="57" y="597"/>
      <point x="71" y="597" type="curve" smooth="yes"/>
      <point x="153" y="597" type="line" smooth="yes"/>
      <point x="160" y="597"/>
      <point x="167" y="594"/>
      <point x="171" y="589" type="curve"/>
      <point x="183" y="594"/>
      <point x="195" y="597"/>
      <point x="209" y="597" type="curve" smooth="yes"/>
      <point x="286" y="597" type="line" smooth="yes"/>
      <point x="341" y="597"/>
      <point x="386" y="552"/>
    </contour>
    <contour>
      <point x="317" y="94" type="curve" smooth="yes"/>
      <point x="317" y="502" type="line" smooth="yes"/>
      <point x="317" y="516"/>
      <point x="305" y="527"/>
      <point x="292" y="527" type="curve" smooth="yes"/>
      <point x="203" y="527" type="line" smooth="yes"/>
      <point x="189" y="527"/>
      <point x="178" y="516"/>
      <point x="178" y="502" type="curve" smooth="yes"/>
      <point x="178" y="94" type="line" smooth="yes"/>
      <point x="178" y="80"/>
      <point x="189" y="69"/>
      <point x="203" y="69" type="curve" smooth="yes"/>
      <point x="292" y="69" type="line" smooth="yes"/>
      <point x="305" y="69"/>
      <point x="317" y="80"/>
    </contour>
  </outline>
</glyph>
<glyph name="F" format="1">
  <advance width="403"/>
  <unicode hex="0046"/>
  <outline>
    <contour>
      <point x="386" y="572" type="curve" smooth="yes"/>
      <point x="386" y="468" type="line" smooth="yes"/>
      <point x="386" y="454"/>
      <point x="375" y="443"/>
      <point x="361" y="443" type="curve" smooth="yes"/>
      <point x="279" y="443" type="line" smooth="yes"/>
      <point x="265" y="443"/>
      <point x="254" y="454"/>
      <point x="254" y="468" type="curve" smooth="yes"/>
      <point x="254" y="502" type="line" smooth="yes"/>
      <point x="254" y="515"/>
      <point x="243" y="527"/>
      <point x="229" y="527" type="curve" smooth="yes"/>
      <point x="203" y="527" type="line" smooth="yes"/>
      <point x="190" y="527"/>
      <point x="178" y="515"/>
      <point x="178" y="502" type="curve" smooth="yes"/>
      <point x="178" y="342" type="line"/>
      <point x="293" y="342" type="line" smooth="yes"/>
      <point x="307" y="342"/>
      <point x="319" y="330"/>
      <point x="319" y="316" type="curve" smooth="yes"/>
      <point x="319" y="303"/>
      <point x="307" y="292"/>
      <point x="293" y="292" type="curve" smooth="yes"/>
      <point x="178" y="292" type="line"/>
      <point x="178" y="-1" type="line"/>
      <point x="72" y="-1" type="line" smooth="yes"/>
      <point x="58" y="-1"/>
      <point x="47" y="10"/>
      <point x="47" y="24" type="curve" smooth="yes"/>
      <point x="47" y="317" type="line" smooth="yes"/>
      <point x="47" y="331"/>
      <point x="58" y="342"/>
      <point x="72" y="342" type="curve" smooth="yes"/>
      <point x="109" y="342" type="line"/>
      <point x="109" y="463" type="line"/>
      <point x="71" y="463" type="line" smooth="yes"/>
      <point x="57" y="463"/>
      <point x="46" y="474"/>
      <point x="46" y="488" type="curve" smooth="yes"/>
      <point x="46" y="572" type="line" smooth="yes"/>
      <point x="46" y="586"/>
      <point x="57" y="597"/>
      <point x="71" y="597" type="curve" smooth="yes"/>
      <point x="153" y="597" type="line" smooth="yes"/>
      <point x="160" y="597"/>
      <point x="166" y="594"/>
      <point x="170" y="589" type="curve"/>
      <point x="182" y="594"/>
      <point x="195" y="597"/>
      <point x="209" y="597" type="curve" smooth="yes"/>
      <point x="361" y="597" type="line" smooth="yes"/>
      <point x="375" y="597"/>
      <point x="386" y="586"/>
    </contour>
  </outline>
</glyph>
<glyph name="G" format="1">
  <advance width="413"/>
  <unicode hex="0047"/>
  <outline>
    <contour>
      <point x="373" y="316" type="curve" smooth="yes"/>
      <point x="373" y="99" type="line" smooth="yes"/>
      <point x="373" y="44"/>
      <point x="328" y="-1"/>
      <point x="273" y="-1" type="curve" smooth="yes"/>
      <point x="58" y="-1" type="line" smooth="yes"/>
      <point x="44" y="-1"/>
      <point x="33" y="10"/>
      <point x="33" y="24" type="curve" smooth="yes"/>
      <point x="33" y="317" type="line" smooth="yes"/>
      <point x="33" y="331"/>
      <point x="44" y="342"/>
      <point x="58" y="342" type="curve" smooth="yes"/>
      <point x="95" y="342" type="line"/>
      <point x="95" y="497" type="line" smooth="yes"/>
      <point x="95" y="552"/>
      <point x="140" y="597"/>
      <point x="195" y="597" type="curve" smooth="yes"/>
      <point x="273" y="597" type="line" smooth="yes"/>
      <point x="328" y="597"/>
      <point x="372" y="552"/>
      <point x="372" y="497" type="curve" smooth="yes"/>
      <point x="372" y="400" type="line" smooth="yes"/>
      <point x="372" y="387"/>
      <point x="361" y="375"/>
      <point x="347" y="375" type="curve" smooth="yes"/>
      <point x="329" y="375" type="line" smooth="yes"/>
      <point x="315" y="375"/>
      <point x="303" y="387"/>
      <point x="303" y="400" type="curve" smooth="yes"/>
      <point x="303" y="502" type="line" smooth="yes"/>
      <point x="303" y="516"/>
      <point x="292" y="527"/>
      <point x="278" y="527" type="curve" smooth="yes"/>
      <point x="190" y="527" type="line" smooth="yes"/>
      <point x="176" y="527"/>
      <point x="165" y="516"/>
      <point x="165" y="502" type="curve" smooth="yes"/>
      <point x="165" y="69" type="line"/>
      <point x="279" y="69" type="line" smooth="yes"/>
      <point x="292" y="69"/>
      <point x="304" y="80"/>
      <point x="304" y="94" type="curve" smooth="yes"/>
      <point x="304" y="207" type="line"/>
      <point x="266" y="207" type="line" smooth="yes"/>
      <point x="252" y="207"/>
      <point x="241" y="218"/>
      <point x="241" y="232" type="curve" smooth="yes"/>
      <point x="241" y="316" type="line" smooth="yes"/>
      <point x="241" y="330"/>
      <point x="252" y="341"/>
      <point x="266" y="341" type="curve" smooth="yes"/>
      <point x="348" y="341" type="line" smooth="yes"/>
      <point x="361" y="341"/>
      <point x="373" y="330"/>
    </contour>
  </outline>
</glyph>
<glyph name="H" format="1">
  <advance width="482"/>
  <unicode hex="0048"/>
  <outline>
    <contour>
      <point x="445" y="172" type="curve" smooth="yes"/>
      <point x="445" y="24" type="line" smooth="yes"/>
      <point x="445" y="10"/>
      <point x="434" y="-1"/>
      <point x="420" y="-1" type="curve" smooth="yes"/>
      <point x="338" y="-1" type="line" smooth="yes"/>
      <point x="324" y="-1"/>
      <point x="313" y="10"/>
      <point x="313" y="24" type="curve" smooth="yes"/>
      <point x="313" y="223" type="line"/>
      <point x="276" y="223" type="line" smooth="yes"/>
      <point x="262" y="223"/>
      <point x="251" y="234"/>
      <point x="251" y="248" type="curve" smooth="yes"/>
      <point x="250" y="267" type="line" smooth="yes"/>
      <point x="250" y="281"/>
      <point x="239" y="292"/>
      <point x="225" y="292" type="curve" smooth="yes"/>
      <point x="174" y="292" type="line"/>
      <point x="174" y="24" type="line" smooth="yes"/>
      <point x="174" y="10"/>
      <point x="163" y="-1"/>
      <point x="149" y="-1" type="curve" smooth="yes"/>
      <point x="68" y="-1" type="line" smooth="yes"/>
      <point x="54" y="-1"/>
      <point x="43" y="10"/>
      <point x="43" y="24" type="curve" smooth="yes"/>
      <point x="43" y="317" type="line" smooth="yes"/>
      <point x="43" y="331"/>
      <point x="54" y="342"/>
      <point x="68" y="342" type="curve" smooth="yes"/>
      <point x="105" y="342" type="line"/>
      <point x="105" y="572" type="line" smooth="yes"/>
      <point x="105" y="586"/>
      <point x="117" y="597"/>
      <point x="131" y="597" type="curve" smooth="yes"/>
      <point x="150" y="597" type="line" smooth="yes"/>
      <point x="164" y="597"/>
      <point x="174" y="586"/>
      <point x="174" y="572" type="curve" smooth="yes"/>
      <point x="174" y="342" type="line"/>
      <point x="313" y="342" type="line"/>
      <point x="313" y="572" type="line" smooth="yes"/>
      <point x="313" y="586"/>
      <point x="325" y="597"/>
      <point x="339" y="597" type="curve" smooth="yes"/>
      <point x="358" y="597" type="line" smooth="yes"/>
      <point x="372" y="597"/>
      <point x="383" y="586"/>
      <point x="383" y="572" type="curve" smooth="yes"/>
      <point x="383" y="197" type="line"/>
      <point x="420" y="197" type="line" smooth="yes"/>
      <point x="434" y="197"/>
      <point x="445" y="186"/>
    </contour>
  </outline>
</glyph>
<glyph name="I" format="1">
  <advance width="266"/>
  <unicode hex="0049"/>
  <outline>
    <contour>
      <point x="222" y="572" type="curve" smooth="yes"/>
      <point x="222" y="24" type="line" smooth="yes"/>
      <point x="222" y="10"/>
      <point x="211" y="-1"/>
      <point x="197" y="-1" type="curve" smooth="yes"/>
      <point x="115" y="-1" type="line" smooth="yes"/>
      <point x="102" y="-1"/>
      <point x="90" y="10"/>
      <point x="90" y="24" type="curve" smooth="yes"/>
      <point x="90" y="317" type="line" smooth="yes"/>
      <point x="90" y="331"/>
      <point x="102" y="342"/>
      <point x="115" y="342" type="curve" smooth="yes"/>
      <point x="152" y="342" type="line"/>
      <point x="152" y="463" type="line"/>
      <point x="115" y="463" type="line" smooth="yes"/>
      <point x="101" y="463"/>
      <point x="90" y="474"/>
      <point x="90" y="488" type="curve" smooth="yes"/>
      <point x="90" y="572" type="line" smooth="yes"/>
      <point x="90" y="586"/>
      <point x="101" y="597"/>
      <point x="115" y="597" type="curve" smooth="yes"/>
      <point x="197" y="597" type="line" smooth="yes"/>
      <point x="211" y="597"/>
      <point x="222" y="586"/>
    </contour>
  </outline>
</glyph>
<glyph name="K" format="1">
  <advance width="435"/>
  <unicode hex="004B"/>
  <outline>
    <contour>
      <point x="393" y="277" type="curve" smooth="yes"/>
      <point x="393" y="24" type="line" smooth="yes"/>
      <point x="393" y="10"/>
      <point x="382" y="-1"/>
      <point x="369" y="-1" type="curve" smooth="yes"/>
      <point x="350" y="-1" type="line" smooth="yes"/>
      <point x="336" y="-1"/>
      <point x="324" y="10"/>
      <point x="324" y="24" type="curve" smooth="yes"/>
      <point x="324" y="223" type="line"/>
      <point x="287" y="223" type="line" smooth="yes"/>
      <point x="273" y="223"/>
      <point x="262" y="234"/>
      <point x="262" y="248" type="curve" smooth="yes"/>
      <point x="261" y="267" type="line" smooth="yes"/>
      <point x="261" y="281"/>
      <point x="250" y="292"/>
      <point x="236" y="292" type="curve" smooth="yes"/>
      <point x="186" y="292" type="line"/>
      <point x="186" y="-1" type="line"/>
      <point x="79" y="-1" type="line" smooth="yes"/>
      <point x="65" y="-1"/>
      <point x="54" y="10"/>
      <point x="54" y="24" type="curve" smooth="yes"/>
      <point x="53" y="317" type="line" smooth="yes"/>
      <point x="53" y="331"/>
      <point x="64" y="342"/>
      <point x="78" y="342" type="curve" smooth="yes"/>
      <point x="115" y="342" type="line"/>
      <point x="115" y="463" type="line"/>
      <point x="78" y="463" type="line" smooth="yes"/>
      <point x="64" y="463"/>
      <point x="53" y="475"/>
      <point x="53" y="488" type="curve" smooth="yes"/>
      <point x="53" y="571" type="line" smooth="yes"/>
      <point x="53" y="585"/>
      <point x="64" y="596"/>
      <point x="78" y="596" type="curve" smooth="yes"/>
      <point x="160" y="596" type="line" smooth="yes"/>
      <point x="169" y="596"/>
      <point x="186" y="585"/>
      <point x="186" y="571" type="curve" smooth="yes"/>
      <point x="186" y="342" type="line"/>
      <point x="299" y="342" type="line"/>
      <point x="299" y="572" type="line" smooth="yes"/>
      <point x="299" y="586"/>
      <point x="312" y="597"/>
      <point x="326" y="597" type="curve" smooth="yes"/>
      <point x="344" y="597" type="line" smooth="yes"/>
      <point x="358" y="597"/>
      <point x="369" y="586"/>
      <point x="369" y="572" type="curve" smooth="yes"/>
      <point x="369" y="327" type="line" smooth="yes"/>
      <point x="369" y="313"/>
      <point x="357" y="302"/>
      <point x="344" y="302" type="curve" smooth="yes"/>
      <point x="369" y="302" type="line" smooth="yes"/>
      <point x="383" y="302"/>
      <point x="393" y="291"/>
    </contour>
  </outline>
</glyph>
<glyph name="L" format="1">
  <advance width="418"/>
  <unicode hex="004C"/>
  <outline>
    <contour>
      <point x="395" y="108" type="curve" smooth="yes"/>
      <point x="395" y="24" type="line" smooth="yes"/>
      <point x="395" y="10"/>
      <point x="384" y="-1"/>
      <point x="370" y="-1" type="curve" smooth="yes"/>
      <point x="45" y="-1" type="line" smooth="yes"/>
      <point x="32" y="-1"/>
      <point x="20" y="10"/>
      <point x="20" y="24" type="curve" smooth="yes"/>
      <point x="20" y="317" type="line" smooth="yes"/>
      <point x="20" y="331"/>
      <point x="32" y="342"/>
      <point x="45" y="342" type="curve" smooth="yes"/>
      <point x="82" y="342" type="line"/>
      <point x="82" y="463" type="line"/>
      <point x="45" y="463" type="line" smooth="yes"/>
      <point x="31" y="463"/>
      <point x="20" y="474"/>
      <point x="20" y="488" type="curve" smooth="yes"/>
      <point x="20" y="572" type="line" smooth="yes"/>
      <point x="20" y="586"/>
      <point x="31" y="597"/>
      <point x="45" y="597" type="curve" smooth="yes"/>
      <point x="127" y="597" type="line" smooth="yes"/>
      <point x="141" y="597"/>
      <point x="152" y="586"/>
      <point x="152" y="572" type="curve" smooth="yes"/>
      <point x="152" y="49" type="line"/>
      <point x="238" y="49" type="line" smooth="yes"/>
      <point x="252" y="49"/>
      <point x="263" y="60"/>
      <point x="263" y="74" type="curve" smooth="yes"/>
      <point x="263" y="108" type="line" smooth="yes"/>
      <point x="263" y="122"/>
      <point x="275" y="133"/>
      <point x="288" y="133" type="curve" smooth="yes"/>
      <point x="370" y="133" type="line" smooth="yes"/>
      <point x="384" y="133"/>
      <point x="395" y="122"/>
    </contour>
  </outline>
</glyph>
<glyph name="N" format="1">
  <advance width="586"/>
  <unicode hex="004E"/>
  <outline>
    <contour>
      <point x="550" y="572" type="curve" smooth="yes"/>
      <point x="550" y="424" type="line" smooth="yes"/>
      <point x="550" y="410"/>
      <point x="539" y="399"/>
      <point x="525" y="399" type="curve" smooth="yes"/>
      <point x="488" y="399" type="line"/>
      <point x="488" y="99" type="line" smooth="yes"/>
      <point x="488" y="44"/>
      <point x="443" y="-1"/>
      <point x="388" y="-1" type="curve" smooth="yes"/>
      <point x="360" y="-1" type="line" smooth="yes"/>
      <point x="305" y="-1"/>
      <point x="260" y="44"/>
      <point x="260" y="99" type="curve" smooth="yes"/>
      <point x="260" y="502" type="line" smooth="yes"/>
      <point x="260" y="516"/>
      <point x="249" y="527"/>
      <point x="235" y="527" type="curve" smooth="yes"/>
      <point x="197" y="527" type="line" smooth="yes"/>
      <point x="183" y="527"/>
      <point x="172" y="516"/>
      <point x="172" y="502" type="curve" smooth="yes"/>
      <point x="172" y="24" type="line" smooth="yes"/>
      <point x="172" y="10"/>
      <point x="161" y="-1"/>
      <point x="147" y="-1" type="curve" smooth="yes"/>
      <point x="65" y="-1" type="line" smooth="yes"/>
      <point x="52" y="-1"/>
      <point x="40" y="10"/>
      <point x="40" y="24" type="curve" smooth="yes"/>
      <point x="40" y="317" type="line" smooth="yes"/>
      <point x="40" y="331"/>
      <point x="52" y="342"/>
      <point x="65" y="342" type="curve" smooth="yes"/>
      <point x="102" y="342" type="line"/>
      <point x="102" y="497" type="line" smooth="yes"/>
      <point x="102" y="552"/>
      <point x="147" y="597"/>
      <point x="202" y="597" type="curve" smooth="yes"/>
      <point x="230" y="597" type="line" smooth="yes"/>
      <point x="285" y="597"/>
      <point x="330" y="552"/>
      <point x="330" y="497" type="curve" smooth="yes"/>
      <point x="330" y="94" type="line" smooth="yes"/>
      <point x="330" y="80"/>
      <point x="341" y="69"/>
      <point x="355" y="69" type="curve" smooth="yes"/>
      <point x="393" y="69" type="line" smooth="yes"/>
      <point x="407" y="69"/>
      <point x="418" y="80"/>
      <point x="418" y="94" type="curve" smooth="yes"/>
      <point x="418" y="572" type="line" smooth="yes"/>
      <point x="418" y="586"/>
      <point x="430" y="597"/>
      <point x="443" y="597" type="curve" smooth="yes"/>
      <point x="525" y="597" type="line" smooth="yes"/>
      <point x="539" y="597"/>
      <point x="550" y="586"/>
    </contour>
  </outline>
</glyph>
<glyph name="O" format="1">
  <advance width="400"/>
  <unicode hex="004F"/>
  <outline>
    <contour>
      <point x="357" y="497" type="curve" smooth="yes"/>
      <point x="357" y="99" type="line" smooth="yes"/>
      <point x="357" y="44"/>
      <point x="313" y="-1"/>
      <point x="257" y="-1" type="curve" smooth="yes"/>
      <point x="160" y="-1" type="line" smooth="yes"/>
      <point x="105" y="-1"/>
      <point x="60" y="44"/>
      <point x="60" y="99" type="curve" smooth="yes"/>
      <point x="60" y="497" type="line" smooth="yes"/>
      <point x="60" y="552"/>
      <point x="105" y="597"/>
      <point x="160" y="597" type="curve" smooth="yes"/>
      <point x="257" y="597" type="line" smooth="yes"/>
      <point x="313" y="597"/>
      <point x="357" y="552"/>
    </contour>
    <contour>
      <point x="288" y="94" type="curve" smooth="yes"/>
      <point x="288" y="502" type="line" smooth="yes"/>
      <point x="288" y="516"/>
      <point x="277" y="527"/>
      <point x="263" y="527" type="curve" smooth="yes"/>
      <point x="154" y="527" type="line" smooth="yes"/>
      <point x="141" y="527"/>
      <point x="129" y="516"/>
      <point x="129" y="502" type="curve" smooth="yes"/>
      <point x="129" y="342" type="line"/>
      <point x="193" y="342" type="line" smooth="yes"/>
      <point x="207" y="342"/>
      <point x="218" y="331"/>
      <point x="218" y="317" type="curve" smooth="yes"/>
      <point x="218" y="68" type="line"/>
      <point x="263" y="68" type="line" smooth="yes"/>
      <point x="277" y="68"/>
      <point x="288" y="80"/>
    </contour>
  </outline>
</glyph>
<glyph name="Q" format="1">
  <advance width="415"/>
  <unicode hex="0051"/>
  <outline>
    <contour>
      <point x="373" y="317" type="curve" smooth="yes"/>
      <point x="373" y="24" type="line" smooth="yes"/>
      <point x="373" y="10"/>
      <point x="362" y="-1"/>
      <point x="348" y="-1" type="curve" smooth="yes"/>
      <point x="266" y="-1" type="line" smooth="yes"/>
      <point x="252" y="-1"/>
      <point x="241" y="10"/>
      <point x="241" y="24" type="curve" smooth="yes"/>
      <point x="241" y="272" type="line"/>
      <point x="133" y="272" type="line" smooth="yes"/>
      <point x="78" y="272"/>
      <point x="33" y="317"/>
      <point x="33" y="372" type="curve" smooth="yes"/>
      <point x="33" y="497" type="line" smooth="yes"/>
      <point x="33" y="552"/>
      <point x="78" y="597"/>
      <point x="133" y="597" type="curve" smooth="yes"/>
      <point x="210" y="597" type="line" smooth="yes"/>
      <point x="224" y="597"/>
      <point x="237" y="594"/>
      <point x="248" y="590" type="curve"/>
      <point x="253" y="594"/>
      <point x="259" y="597"/>
      <point x="266" y="597" type="curve" smooth="yes"/>
      <point x="348" y="597" type="line" smooth="yes"/>
      <point x="362" y="597"/>
      <point x="373" y="586"/>
      <point x="373" y="572" type="curve" smooth="yes"/>
      <point x="373" y="488" type="line" smooth="yes"/>
      <point x="373" y="475"/>
      <point x="362" y="463"/>
      <point x="348" y="463" type="curve" smooth="yes"/>
      <point x="310" y="463" type="line"/>
      <point x="310" y="342" type="line"/>
      <point x="348" y="342" type="line" smooth="yes"/>
      <point x="362" y="342"/>
      <point x="373" y="331"/>
    </contour>
    <contour>
      <point x="241" y="367" type="curve" smooth="yes"/>
      <point x="241" y="502" type="line" smooth="yes"/>
      <point x="241" y="516"/>
      <point x="230" y="527"/>
      <point x="216" y="527" type="curve" smooth="yes"/>
      <point x="127" y="527" type="line" smooth="yes"/>
      <point x="114" y="527"/>
      <point x="102" y="516"/>
      <point x="102" y="502" type="curve" smooth="yes"/>
      <point x="102" y="367" type="line" smooth="yes"/>
      <point x="102" y="353"/>
      <point x="114" y="342"/>
      <point x="127" y="342" type="curve" smooth="yes"/>
      <point x="216" y="342" type="line" smooth="yes"/>
      <point x="230" y="342"/>
      <point x="241" y="353"/>
    </contour>
  </outline>
</glyph>
<glyph name="T" format="1">
  <advance width="593"/>
  <unicode hex="0054"/>
  <outline>
    <contour>
      <point x="579" y="572" type="curve" smooth="yes"/>
      <point x="579" y="488" type="line" smooth="yes"/>
      <point x="579" y="474"/>
      <point x="568" y="463"/>
      <point x="554" y="463" type="curve" smooth="yes"/>
      <point x="472" y="463" type="line" smooth="yes"/>
      <point x="458" y="463"/>
      <point x="447" y="474"/>
      <point x="447" y="488" type="curve" smooth="yes"/>
      <point x="447" y="522" type="line" smooth="yes"/>
      <point x="447" y="536"/>
      <point x="436" y="547"/>
      <point x="422" y="547" type="curve" smooth="yes"/>
      <point x="376" y="547" type="line"/>
      <point x="376" y="24" type="line" smooth="yes"/>
      <point x="376" y="10"/>
      <point x="365" y="-1"/>
      <point x="351" y="-1" type="curve" smooth="yes"/>
      <point x="245" y="-1" type="line"/>
      <point x="245" y="317" type="line" smooth="yes"/>
      <point x="245" y="331"/>
      <point x="256" y="342"/>
      <point x="270" y="342" type="curve" smooth="yes"/>
      <point x="307" y="342" type="line"/>
      <point x="307" y="463" type="line"/>
      <point x="269" y="463" type="line" smooth="yes"/>
      <point x="256" y="463"/>
      <point x="244" y="474"/>
      <point x="244" y="488" type="curve" smooth="yes"/>
      <point x="244" y="547" type="line"/>
      <point x="198" y="547" type="line" smooth="yes"/>
      <point x="184" y="547"/>
      <point x="173" y="536"/>
      <point x="173" y="522" type="curve" smooth="yes"/>
      <point x="173" y="488" type="line" smooth="yes"/>
      <point x="173" y="474"/>
      <point x="162" y="463"/>
      <point x="148" y="463" type="curve" smooth="yes"/>
      <point x="66" y="463" type="line" smooth="yes"/>
      <point x="52" y="463"/>
      <point x="41" y="474"/>
      <point x="41" y="488" type="curve" smooth="yes"/>
      <point x="41" y="572" type="line" smooth="yes"/>
      <point x="41" y="586"/>
      <point x="52" y="597"/>
      <point x="66" y="597" type="curve" smooth="yes"/>
      <point x="554" y="597" type="line" smooth="yes"/>
      <point x="568" y="597"/>
      <point x="579" y="586"/>
    </contour>
  </outline>
</glyph>
<glyph name="U" format="1">
  <advance width="479"/>
  <unicode hex="0055"/>
  <outline>
    <contour>
      <point x="451" y="572" type="curve" smooth="yes"/>
      <point x="451" y="424" type="line" smooth="yes"/>
      <point x="451" y="410"/>
      <point x="439" y="399"/>
      <point x="426" y="399" type="curve" smooth="yes"/>
      <point x="388" y="399" type="line"/>
      <point x="388" y="99" type="line" smooth="yes"/>
      <point x="388" y="44"/>
      <point x="343" y="-1"/>
      <point x="288" y="-1" type="curve" smooth="yes"/>
      <point x="211" y="-1" type="line" smooth="yes"/>
      <point x="196" y="-1"/>
      <point x="182" y="3"/>
      <point x="170" y="9" type="curve"/>
      <point x="166" y="3"/>
      <point x="163" y="-1"/>
      <point x="156" y="-1" type="curve" smooth="yes"/>
      <point x="74" y="-1" type="line" smooth="yes"/>
      <point x="60" y="-1"/>
      <point x="48" y="10"/>
      <point x="48" y="24" type="curve" smooth="yes"/>
      <point x="48" y="317" type="line" smooth="yes"/>
      <point x="48" y="331"/>
      <point x="60" y="342"/>
      <point x="74" y="342" type="curve" smooth="yes"/>
      <point x="111" y="342" type="line"/>
      <point x="111" y="572" type="line" smooth="yes"/>
      <point x="111" y="586"/>
      <point x="123" y="597"/>
      <point x="137" y="597" type="curve" smooth="yes"/>
      <point x="155" y="597" type="line" smooth="yes"/>
      <point x="169" y="597"/>
      <point x="180" y="586"/>
      <point x="180" y="572" type="curve" smooth="yes"/>
      <point x="180" y="94" type="line" smooth="yes"/>
      <point x="180" y="80"/>
      <point x="191" y="69"/>
      <point x="205" y="69" type="curve" smooth="yes"/>
      <point x="294" y="69" type="line" smooth="yes"/>
      <point x="307" y="69"/>
      <point x="319" y="80"/>
      <point x="319" y="94" type="curve" smooth="yes"/>
      <point x="319" y="572" type="line" smooth="yes"/>
      <point x="319" y="586"/>
      <point x="330" y="597"/>
      <point x="344" y="597" type="curve" smooth="yes"/>
      <point x="426" y="597" type="line" smooth="yes"/>
      <point x="439" y="597"/>
      <point x="451" y="586"/>
    </contour>
  </outline>
</glyph>
<glyph name="V" format="1">
  <advance width="463"/>
  <unicode hex="0056"/>
  <outline>
    <contour>
      <point x="412" y="572" type="curve" smooth="yes"/>
      <point x="412" y="191" type="line" smooth="yes"/>
      <point x="412" y="177"/>
      <point x="400" y="166"/>
      <point x="387" y="166" type="curve" smooth="yes"/>
      <point x="358" y="166" type="line" smooth="yes"/>
      <point x="344" y="165"/>
      <point x="333" y="155"/>
      <point x="334" y="141" type="curve" smooth="yes"/>
      <point x="334" y="100" type="line" smooth="yes"/>
      <point x="335" y="44"/>
      <point x="289" y="-1"/>
      <point x="234" y="-1" type="curve" smooth="yes"/>
      <point x="206" y="-1" type="line" smooth="yes"/>
      <point x="192" y="-1"/>
      <point x="178" y="3"/>
      <point x="165" y="9" type="curve"/>
      <point x="162" y="3"/>
      <point x="158" y="-1"/>
      <point x="151" y="-1" type="curve" smooth="yes"/>
      <point x="69" y="-1" type="line" smooth="yes"/>
      <point x="55" y="-1"/>
      <point x="44" y="10"/>
      <point x="44" y="24" type="curve" smooth="yes"/>
      <point x="44" y="317" type="line" smooth="yes"/>
      <point x="44" y="331"/>
      <point x="55" y="342"/>
      <point x="69" y="342" type="curve" smooth="yes"/>
      <point x="106" y="342" type="line"/>
      <point x="106" y="572" type="line" smooth="yes"/>
      <point x="106" y="586"/>
      <point x="118" y="597"/>
      <point x="132" y="597" type="curve" smooth="yes"/>
      <point x="151" y="597" type="line" smooth="yes"/>
      <point x="164" y="597"/>
      <point x="176" y="586"/>
      <point x="176" y="572" type="curve" smooth="yes"/>
      <point x="176" y="94" type="line" smooth="yes"/>
      <point x="176" y="80"/>
      <point x="187" y="69"/>
      <point x="201" y="69" type="curve" smooth="yes"/>
      <point x="239" y="69" type="line" smooth="yes"/>
      <point x="253" y="69"/>
      <point x="264" y="81"/>
      <point x="264" y="95" type="curve" smooth="yes"/>
      <point x="264" y="137" type="line" smooth="yes"/>
      <point x="264" y="184"/>
      <point x="297" y="224"/>
      <point x="342" y="235" type="curve"/>
      <point x="342" y="572" type="line" smooth="yes"/>
      <point x="342" y="586"/>
      <point x="354" y="597"/>
      <point x="368" y="597" type="curve" smooth="yes"/>
      <point x="386" y="597" type="line" smooth="yes"/>
      <point x="400" y="597"/>
      <point x="412" y="586"/>
    </contour>
  </outline>
</glyph>
<glyph name="W" format="1">
  <advance width="618"/>
  <unicode hex="0057"/>
  <outline>
    <contour>
      <point x="567" y="572" type="curve" smooth="yes"/>
      <point x="567" y="191" type="line" smooth="yes"/>
      <point x="567" y="177"/>
      <point x="555" y="166"/>
      <point x="542" y="166" type="curve" smooth="yes"/>
      <point x="513" y="166" type="line" smooth="yes"/>
      <point x="499" y="165"/>
      <point x="489" y="155"/>
      <point x="489" y="141" type="curve" smooth="yes"/>
      <point x="489" y="100" type="line" smooth="yes"/>
      <point x="489" y="44"/>
      <point x="445" y="-1"/>
      <point x="389" y="-1" type="curve" smooth="yes"/>
      <point x="206" y="-1" type="line" smooth="yes"/>
      <point x="191" y="-1"/>
      <point x="178" y="3"/>
      <point x="165" y="9" type="curve"/>
      <point x="162" y="3"/>
      <point x="158" y="-1"/>
      <point x="151" y="-1" type="curve" smooth="yes"/>
      <point x="69" y="-1" type="line" smooth="yes"/>
      <point x="55" y="-1"/>
      <point x="44" y="10"/>
      <point x="44" y="24" type="curve" smooth="yes"/>
      <point x="44" y="317" type="line" smooth="yes"/>
      <point x="44" y="331"/>
      <point x="55" y="342"/>
      <point x="69" y="342" type="curve" smooth="yes"/>
      <point x="106" y="342" type="line"/>
      <point x="106" y="572" type="line" smooth="yes"/>
      <point x="106" y="586"/>
      <point x="118" y="597"/>
      <point x="132" y="597" type="curve" smooth="yes"/>
      <point x="151" y="597" type="line" smooth="yes"/>
      <point x="164" y="597"/>
      <point x="176" y="586"/>
      <point x="176" y="572" type="curve" smooth="yes"/>
      <point x="176" y="94" type="line" smooth="yes"/>
      <point x="176" y="80"/>
      <point x="187" y="69"/>
      <point x="201" y="69" type="curve" smooth="yes"/>
      <point x="279" y="69" type="line"/>
      <point x="279" y="442" type="line" smooth="yes"/>
      <point x="279" y="456"/>
      <point x="291" y="467"/>
      <point x="305" y="467" type="curve" smooth="yes"/>
      <point x="324" y="467" type="line" smooth="yes"/>
      <point x="337" y="467"/>
      <point x="349" y="456"/>
      <point x="349" y="442" type="curve" smooth="yes"/>
      <point x="349" y="69" type="line"/>
      <point x="394" y="69" type="line" smooth="yes"/>
      <point x="408" y="69"/>
      <point x="419" y="81"/>
      <point x="419" y="95" type="curve" smooth="yes"/>
      <point x="419" y="137" type="line" smooth="yes"/>
      <point x="419" y="184"/>
      <point x="452" y="224"/>
      <point x="497" y="235" type="curve"/>
      <point x="497" y="572" type="line" smooth="yes"/>
      <point x="497" y="586"/>
      <point x="509" y="597"/>
      <point x="523" y="597" type="curve" smooth="yes"/>
      <point x="541" y="597" type="line" smooth="yes"/>
      <point x="555" y="597"/>
      <point x="567" y="586"/>
    </contour>
  </outline>
</glyph>
<glyph name="X" format="1">
  <advance width="489"/>
  <unicode hex="0058"/>
  <outline>
    <contour>
      <point x="446" y="244" type="curve" smooth="yes"/>
      <point x="446" y="24" type="line" smooth="yes"/>
      <point x="446" y="10"/>
      <point x="434" y="-1"/>
      <point x="420" y="-1" type="curve" smooth="yes"/>
      <point x="401" y="-1" type="line" smooth="yes"/>
      <point x="388" y="-1"/>
      <point x="376" y="10"/>
      <point x="376" y="24" type="curve" smooth="yes"/>
      <point x="376" y="248" type="line" smooth="yes"/>
      <point x="376" y="262"/>
      <point x="366" y="273"/>
      <point x="352" y="273" type="curve" smooth="yes"/>
      <point x="199" y="273" type="line" smooth="yes"/>
      <point x="185" y="273"/>
      <point x="175" y="262"/>
      <point x="175" y="248" type="curve" smooth="yes"/>
      <point x="175" y="24" type="line" smooth="yes"/>
      <point x="175" y="10"/>
      <point x="164" y="-1"/>
      <point x="150" y="-1" type="curve" smooth="yes"/>
      <point x="68" y="-1" type="line" smooth="yes"/>
      <point x="54" y="-1"/>
      <point x="43" y="10"/>
      <point x="43" y="24" type="curve" smooth="yes"/>
      <point x="43" y="172" type="line" smooth="yes"/>
      <point x="43" y="186"/>
      <point x="54" y="197"/>
      <point x="68" y="197" type="curve" smooth="yes"/>
      <point x="105" y="197" type="line"/>
      <point x="105" y="244" type="line" smooth="yes"/>
      <point x="105" y="291"/>
      <point x="138" y="333"/>
      <point x="182" y="343" type="curve"/>
      <point x="182" y="365" type="line"/>
      <point x="138" y="375"/>
      <point x="105" y="413"/>
      <point x="105" y="460" type="curve" smooth="yes"/>
      <point x="105" y="572" type="line" smooth="yes"/>
      <point x="105" y="586"/>
      <point x="117" y="597"/>
      <point x="131" y="597" type="curve" smooth="yes"/>
      <point x="149" y="597" type="line" smooth="yes"/>
      <point x="163" y="597"/>
      <point x="175" y="586"/>
      <point x="175" y="572" type="curve" smooth="yes"/>
      <point x="175" y="456" type="line" smooth="yes"/>
      <point x="175" y="442"/>
      <point x="185" y="430"/>
      <point x="199" y="430" type="curve" smooth="yes"/>
      <point x="253" y="430" type="line"/>
      <point x="253" y="342" type="line"/>
      <point x="297" y="342" type="line"/>
      <point x="297" y="430" type="line"/>
      <point x="352" y="430" type="line" smooth="yes"/>
      <point x="366" y="430"/>
      <point x="376" y="442"/>
      <point x="376" y="456" type="curve" smooth="yes"/>
      <point x="376" y="572" type="line" smooth="yes"/>
      <point x="376" y="586"/>
      <point x="388" y="597"/>
      <point x="401" y="597" type="curve" smooth="yes"/>
      <point x="420" y="597" type="line" smooth="yes"/>
      <point x="434" y="597"/>
      <point x="446" y="586"/>
      <point x="446" y="572" type="curve" smooth="yes"/>
      <point x="446" y="460" type="line" smooth="yes"/>
      <point x="446" y="413"/>
      <point x="412" y="375"/>
      <point x="367" y="365" type="curve"/>
      <point x="367" y="344" type="line"/>
      <point x="412" y="334"/>
      <point x="446" y="291"/>
    </contour>
  </outline>
</glyph>
<glyph name="Y" format="1">
  <advance width="369"/>
  <unicode hex="0059"/>
  <outline>
    <contour>
      <point x="344" y="572" type="curve" smooth="yes"/>
      <point x="344" y="446" type="line" smooth="yes"/>
      <point x="344" y="432"/>
      <point x="333" y="421"/>
      <point x="319" y="421" type="curve" smooth="yes"/>
      <point x="290" y="421" type="line" smooth="yes"/>
      <point x="277" y="420"/>
      <point x="266" y="410"/>
      <point x="266" y="396" type="curve" smooth="yes"/>
      <point x="266" y="355" type="line" smooth="yes"/>
      <point x="266" y="300"/>
      <point x="222" y="254"/>
      <point x="166" y="254" type="curve" smooth="yes"/>
      <point x="138" y="254" type="line" smooth="yes"/>
      <point x="124" y="254"/>
      <point x="121" y="257"/>
      <point x="108" y="263" type="curve"/>
      <point x="108" y="197" type="line"/>
      <point x="168" y="197" type="line" smooth="yes"/>
      <point x="182" y="197"/>
      <point x="193" y="186"/>
      <point x="193" y="172" type="curve" smooth="yes"/>
      <point x="193" y="24" type="line" smooth="yes"/>
      <point x="193" y="10"/>
      <point x="182" y="-1"/>
      <point x="168" y="-1" type="curve" smooth="yes"/>
      <point x="55" y="-1" type="line" smooth="yes"/>
      <point x="41" y="-1"/>
      <point x="38" y="10"/>
      <point x="38" y="24" type="curve" smooth="yes"/>
      <point x="38" y="572" type="line" smooth="yes"/>
      <point x="38" y="586"/>
      <point x="51" y="597"/>
      <point x="64" y="597" type="curve" smooth="yes"/>
      <point x="83" y="597" type="line" smooth="yes"/>
      <point x="97" y="597"/>
      <point x="108" y="586"/>
      <point x="108" y="572" type="curve" smooth="yes"/>
      <point x="108" y="349" type="line" smooth="yes"/>
      <point x="108" y="335"/>
      <point x="119" y="324"/>
      <point x="133" y="324" type="curve" smooth="yes"/>
      <point x="171" y="324" type="line" smooth="yes"/>
      <point x="185" y="324"/>
      <point x="196" y="336"/>
      <point x="196" y="350" type="curve" smooth="yes"/>
      <point x="196" y="392" type="line" smooth="yes"/>
      <point x="196" y="439"/>
      <point x="230" y="479"/>
      <point x="274" y="490" type="curve"/>
      <point x="274" y="572" type="line" smooth="yes"/>
      <point x="274" y="586"/>
      <point x="286" y="597"/>
      <point x="300" y="597" type="curve" smooth="yes"/>
      <point x="318" y="597" type="line" smooth="yes"/>
      <point x="332" y="597"/>
      <point x="344" y="586"/>
    </contour>
  </outline>
</glyph>
<glyph name="a" format="1">
  <advance width="457"/>
  <unicode hex="0061"/>
  <outline>
    <contour>
      <point x="421" y="172" type="curve" smooth="yes"/>
      <point x="421" y="24" type="line" smooth="yes"/>
      <point x="421" y="10"/>
      <point x="410" y="-1"/>
      <point x="396" y="-1" type="curve" smooth="yes"/>
      <point x="314" y="-1" type="line" smooth="yes"/>
      <point x="300" y="-1"/>
      <point x="289" y="10"/>
      <point x="289" y="24" type="curve" smooth="yes"/>
      <point x="289" y="223" type="line"/>
      <point x="251" y="223" type="line" smooth="yes"/>
      <point x="238" y="223"/>
      <point x="227" y="234"/>
      <point x="226" y="248" type="curve" smooth="yes"/>
      <point x="226" y="267" type="line" smooth="yes"/>
      <point x="226" y="281"/>
      <point x="215" y="292"/>
      <point x="201" y="292" type="curve" smooth="yes"/>
      <point x="150" y="292" type="line"/>
      <point x="150" y="24" type="line" smooth="yes"/>
      <point x="150" y="10"/>
      <point x="140" y="-1"/>
      <point x="126" y="-1" type="curve" smooth="yes"/>
      <point x="44" y="-1" type="line" smooth="yes"/>
      <point x="30" y="-1"/>
      <point x="19" y="10"/>
      <point x="19" y="24" type="curve" smooth="yes"/>
      <point x="19" y="317" type="line" smooth="yes"/>
      <point x="19" y="331"/>
      <point x="30" y="342"/>
      <point x="44" y="342" type="curve" smooth="yes"/>
      <point x="81" y="342" type="line"/>
      <point x="81" y="497" type="line" smooth="yes"/>
      <point x="81" y="552"/>
      <point x="126" y="597"/>
      <point x="181" y="597" type="curve" smooth="yes"/>
      <point x="258" y="597" type="line" smooth="yes"/>
      <point x="314" y="597"/>
      <point x="358" y="552"/>
      <point x="358" y="497" type="curve" smooth="yes"/>
      <point x="358" y="197" type="line"/>
      <point x="396" y="197" type="line" smooth="yes"/>
      <point x="410" y="197"/>
      <point x="421" y="186"/>
    </contour>
    <contour>
      <point x="150" y="342" type="line"/>
      <point x="289" y="342" type="line"/>
      <point x="289" y="502" type="line" smooth="yes"/>
      <point x="289" y="516"/>
      <point x="278" y="527"/>
      <point x="264" y="527" type="curve" smooth="yes"/>
      <point x="175" y="527" type="line" smooth="yes"/>
      <point x="162" y="527"/>
      <point x="150" y="516"/>
      <point x="150" y="502" type="curve" smooth="yes"/>
    </contour>
    <contour>
      <point x="52" y="174" type="curve" smooth="yes"/>
      <point x="130" y="251" type="line"/>
      <point x="130" y="283" type="line" smooth="yes"/>
      <point x="130" y="285.5"/>
      <point x="129" y="286.75"/>
      <point x="127.25" y="286.75" type="curve" smooth="yes"/>
      <point x="125.5" y="286.75"/>
      <point x="123" y="285.5"/>
      <point x="120" y="283" type="curve" smooth="yes"/>
      <point x="42" y="206" type="line"/>
      <point x="42" y="175" type="line" smooth="yes"/>
      <point x="42" y="171.863"/>
      <point x="43.3665" y="170.366"/>
      <point x="45.385" y="170.366" type="curve" smooth="yes"/>
      <point x="47.2277" y="170.366"/>
      <point x="49.6139" y="171.614"/>
    </contour>
    <contour>
      <point x="52" y="108" type="curve" smooth="yes"/>
      <point x="130" y="184" type="line"/>
      <point x="130" y="216" type="line" smooth="yes"/>
      <point x="130" y="219"/>
      <point x="129" y="220.5"/>
      <point x="127.25" y="220.5" type="curve" smooth="yes"/>
      <point x="125.5" y="220.5"/>
      <point x="123" y="219"/>
      <point x="120" y="216" type="curve" smooth="yes"/>
      <point x="42" y="140" type="line"/>
      <point x="42" y="108" type="line" smooth="yes"/>
      <point x="42" y="105.5"/>
      <point x="43.25" y="104.25"/>
      <point x="45.125" y="104.25" type="curve" smooth="yes"/>
      <point x="47" y="104.25"/>
      <point x="49.5" y="105.5"/>
    </contour>
    <contour>
      <point x="52" y="41" type="curve" smooth="yes"/>
      <point x="130" y="117" type="line"/>
      <point x="130" y="149" type="line" smooth="yes"/>
      <point x="130" y="152"/>
      <point x="129" y="153.5"/>
      <point x="127.25" y="153.5" type="curve" smooth="yes"/>
      <point x="125.5" y="153.5"/>
      <point x="123" y="152"/>
      <point x="120" y="149" type="curve" smooth="yes"/>
      <point x="42" y="73" type="line"/>
      <point x="42" y="41" type="line" smooth="yes"/>
      <point x="42" y="38.5"/>
      <point x="43.25" y="37.25"/>
      <point x="45.125" y="37.25" type="curve" smooth="yes"/>
      <point x="47" y="37.25"/>
      <point x="49.5" y="38.5"/>
    </contour>
  </outline>
</glyph>
<glyph name="b" format="1">
  <advance width="427"/>
  <unicode hex="0062"/>
  <outline>
    <contour>
      <point x="77" y="174" type="curve" smooth="yes"/>
      <point x="155" y="251" type="line"/>
      <point x="155" y="283" type="line" smooth="yes"/>
      <point x="155" y="285.5"/>
      <point x="154" y="286.75"/>
      <point x="152.25" y="286.75" type="curve" smooth="yes"/>
      <point x="150.5" y="286.75"/>
      <point x="148" y="285.5"/>
      <point x="145" y="283" type="curve" smooth="yes"/>
      <point x="67" y="206" type="line"/>
      <point x="67" y="175" type="line" smooth="yes"/>
      <point x="67" y="171.863"/>
      <point x="68.3662" y="170.366"/>
      <point x="70.3848" y="170.366" type="curve" smooth="yes"/>
      <point x="72.2275" y="170.366"/>
      <point x="74.6143" y="171.614"/>
    </contour>
    <contour>
      <point x="77" y="108" type="curve" smooth="yes"/>
      <point x="155" y="184" type="line"/>
      <point x="155" y="216" type="line" smooth="yes"/>
      <point x="155" y="219"/>
      <point x="154" y="220.5"/>
      <point x="152.25" y="220.5" type="curve" smooth="yes"/>
      <point x="150.5" y="220.5"/>
      <point x="148" y="219"/>
      <point x="145" y="216" type="curve" smooth="yes"/>
      <point x="67" y="140" type="line"/>
      <point x="67" y="108" type="line" smooth="yes"/>
      <point x="67" y="105.5"/>
      <point x="68.25" y="104.25"/>
      <point x="70.125" y="104.25" type="curve" smooth="yes"/>
      <point x="72" y="104.25"/>
      <point x="74.5" y="105.5"/>
    </contour>
    <contour>
      <point x="77" y="41" type="curve" smooth="yes"/>
      <point x="155" y="117" type="line"/>
      <point x="155" y="149" type="line" smooth="yes"/>
      <point x="155" y="152"/>
      <point x="154" y="153.5"/>
      <point x="152.25" y="153.5" type="curve" smooth="yes"/>
      <point x="150.5" y="153.5"/>
      <point x="148" y="152"/>
      <point x="145" y="149" type="curve" smooth="yes"/>
      <point x="67" y="73" type="line"/>
      <point x="67" y="41" type="line" smooth="yes"/>
      <point x="67" y="38.5"/>
      <point x="68.25" y="37.25"/>
      <point x="70.125" y="37.25" type="curve" smooth="yes"/>
      <point x="72" y="37.25"/>
      <point x="74.5" y="38.5"/>
    </contour>
    <contour>
      <point x="386" y="277" type="curve" smooth="yes"/>
      <point x="386" y="99" type="line" smooth="yes"/>
      <point x="385" y="44"/>
      <point x="341" y="-1"/>
      <point x="286" y="-1" type="curve" smooth="yes"/>
      <point x="240" y="-1" type="line"/>
      <point x="72" y="-1" type="line" smooth="yes"/>
      <point x="58" y="-1"/>
      <point x="46" y="10"/>
      <point x="46" y="24" type="curve" smooth="yes"/>
      <point x="46" y="317" type="line" smooth="yes"/>
      <point x="46" y="331"/>
      <point x="57" y="342"/>
      <point x="71" y="342" type="curve" smooth="yes"/>
      <point x="108" y="342" type="line"/>
      <point x="108" y="463" type="line"/>
      <point x="71" y="463" type="line" smooth="yes"/>
      <point x="57" y="463"/>
      <point x="46" y="475"/>
      <point x="46" y="488" type="curve" smooth="yes"/>
      <point x="46" y="571" type="line" smooth="yes"/>
      <point x="46" y="585"/>
      <point x="57" y="596"/>
      <point x="71" y="596" type="curve" smooth="yes"/>
      <point x="153" y="596" type="line" smooth="yes"/>
      <point x="162" y="596"/>
      <point x="170" y="591"/>
      <point x="174" y="584" type="curve"/>
      <point x="189" y="592"/>
      <point x="201" y="596"/>
      <point x="219" y="596" type="curve" smooth="yes"/>
      <point x="262" y="596" type="line" smooth="yes"/>
      <point x="317" y="596"/>
      <point x="361" y="552"/>
      <point x="362" y="497" type="curve" smooth="yes"/>
      <point x="362" y="327" type="line" smooth="yes"/>
      <point x="362" y="313"/>
      <point x="350" y="302"/>
      <point x="337" y="302" type="curve" smooth="yes"/>
      <point x="362" y="302" type="line" smooth="yes"/>
      <point x="376" y="302"/>
      <point x="386" y="291"/>
    </contour>
    <contour>
      <point x="179" y="342" type="line"/>
      <point x="292" y="342" type="line"/>
      <point x="292" y="342"/>
      <point x="292" y="424"/>
      <point x="292" y="502" type="curve" smooth="yes"/>
      <point x="292" y="516"/>
      <point x="281" y="527"/>
      <point x="267" y="527" type="curve" smooth="yes"/>
      <point x="204" y="527" type="line" smooth="yes"/>
      <point x="190" y="527"/>
      <point x="179" y="516"/>
      <point x="179" y="502" type="curve" smooth="yes"/>
    </contour>
    <contour>
      <point x="317" y="95" type="curve" smooth="yes"/>
      <point x="317" y="143"/>
      <point x="317" y="223"/>
      <point x="317" y="223" type="curve"/>
      <point x="280" y="223" type="line" smooth="yes"/>
      <point x="266" y="223"/>
      <point x="255" y="234"/>
      <point x="255" y="248" type="curve" smooth="yes"/>
      <point x="254" y="267" type="line" smooth="yes"/>
      <point x="254" y="281"/>
      <point x="243" y="292"/>
      <point x="229" y="292" type="curve" smooth="yes"/>
      <point x="179" y="292" type="line"/>
      <point x="179" y="95" type="line" smooth="yes"/>
      <point x="179" y="81"/>
      <point x="189" y="70"/>
      <point x="203" y="70" type="curve" smooth="yes"/>
      <point x="292" y="70" type="line" smooth="yes"/>
      <point x="305" y="70"/>
      <point x="316" y="81"/>
    </contour>
  </outline>
</glyph>
<glyph name="c" format="1">
  <advance width="414"/>
  <unicode hex="0063"/>
  <outline>
    <contour>
      <point x="386" y="108" type="curve" smooth="yes"/>
      <point x="386" y="24" type="line" smooth="yes"/>
      <point x="386" y="10"/>
      <point x="375" y="-1"/>
      <point x="361" y="-1" type="curve" smooth="yes"/>
      <point x="72" y="-1" type="line" smooth="yes"/>
      <point x="58" y="-1"/>
      <point x="47" y="10"/>
      <point x="47" y="24" type="curve" smooth="yes"/>
      <point x="47" y="317" type="line" smooth="yes"/>
      <point x="47" y="331"/>
      <point x="58" y="342"/>
      <point x="72" y="342" type="curve" smooth="yes"/>
      <point x="109" y="342" type="line"/>
      <point x="109" y="497" type="line" smooth="yes"/>
      <point x="109" y="552"/>
      <point x="154" y="597"/>
      <point x="209" y="597" type="curve" smooth="yes"/>
      <point x="287" y="597" type="line" smooth="yes"/>
      <point x="342" y="597"/>
      <point x="386" y="552"/>
      <point x="386" y="497" type="curve" smooth="yes"/>
      <point x="386" y="400" type="line" smooth="yes"/>
      <point x="386" y="387"/>
      <point x="375" y="375"/>
      <point x="361" y="375" type="curve" smooth="yes"/>
      <point x="343" y="375" type="line" smooth="yes"/>
      <point x="329" y="375"/>
      <point x="317" y="387"/>
      <point x="317" y="400" type="curve" smooth="yes"/>
      <point x="317" y="502" type="line" smooth="yes"/>
      <point x="317" y="516"/>
      <point x="306" y="527"/>
      <point x="292" y="527" type="curve" smooth="yes"/>
      <point x="204" y="527" type="line" smooth="yes"/>
      <point x="190" y="527"/>
      <point x="179" y="516"/>
      <point x="179" y="502" type="curve" smooth="yes"/>
      <point x="179" y="49" type="line"/>
      <point x="229" y="49" type="line" smooth="yes"/>
      <point x="243" y="49"/>
      <point x="254" y="60"/>
      <point x="254" y="74" type="curve" smooth="yes"/>
      <point x="254" y="108" type="line" smooth="yes"/>
      <point x="254" y="122"/>
      <point x="265" y="133"/>
      <point x="279" y="133" type="curve" smooth="yes"/>
      <point x="361" y="133" type="line" smooth="yes"/>
      <point x="375" y="133"/>
      <point x="386" y="122"/>
    </contour>
    <contour>
      <point x="81" y="174" type="curve" smooth="yes"/>
      <point x="159" y="251" type="line"/>
      <point x="159" y="283" type="line" smooth="yes"/>
      <point x="159" y="288"/>
      <point x="155" y="288"/>
      <point x="149" y="283" type="curve" smooth="yes"/>
      <point x="71" y="206" type="line"/>
      <point x="71" y="175" type="line" smooth="yes"/>
      <point x="71" y="169"/>
      <point x="76" y="169"/>
    </contour>
    <contour>
      <point x="81" y="108" type="curve" smooth="yes"/>
      <point x="159" y="184" type="line"/>
      <point x="159" y="216" type="line" smooth="yes"/>
      <point x="159" y="222"/>
      <point x="155" y="222"/>
      <point x="149" y="216" type="curve" smooth="yes"/>
      <point x="71" y="140" type="line"/>
      <point x="71" y="108" type="line" smooth="yes"/>
      <point x="71" y="103"/>
      <point x="76" y="103"/>
    </contour>
    <contour>
      <point x="81" y="41" type="curve" smooth="yes"/>
      <point x="159" y="117" type="line"/>
      <point x="159" y="149" type="line" smooth="yes"/>
      <point x="159" y="155"/>
      <point x="155" y="155"/>
      <point x="149" y="149" type="curve" smooth="yes"/>
      <point x="71" y="73" type="line"/>
      <point x="71" y="41" type="line" smooth="yes"/>
      <point x="71" y="36"/>
      <point x="76" y="36"/>
    </contour>
  </outline>
</glyph>
<glyph name="d" format="1">
  <advance width="429"/>
  <unicode hex="0064"/>
  <outline>
    <contour>
      <point x="386" y="497" type="curve" smooth="yes"/>
      <point x="386" y="99" type="line" smooth="yes"/>
      <point x="386" y="44"/>
      <point x="341" y="-1"/>
      <point x="286" y="-1" type="curve" smooth="yes"/>
      <point x="209" y="-1" type="line" smooth="yes"/>
      <point x="194" y="-1"/>
      <point x="180" y="3"/>
      <point x="168" y="8" type="curve"/>
      <point x="164" y="3"/>
      <point x="160" y="-1"/>
      <point x="154" y="-1" type="curve" smooth="yes"/>
      <point x="72" y="-1" type="line" smooth="yes"/>
      <point x="58" y="-1"/>
      <point x="46" y="10"/>
      <point x="46" y="24" type="curve" smooth="yes"/>
      <point x="46" y="317" type="line" smooth="yes"/>
      <point x="46" y="331"/>
      <point x="58" y="342"/>
      <point x="72" y="342" type="curve" smooth="yes"/>
      <point x="109" y="342" type="line"/>
      <point x="109" y="463" type="line"/>
      <point x="71" y="463" type="line" smooth="yes"/>
      <point x="57" y="463"/>
      <point x="46" y="475"/>
      <point x="46" y="488" type="curve" smooth="yes"/>
      <point x="46" y="572" type="line" smooth="yes"/>
      <point x="46" y="586"/>
      <point x="57" y="597"/>
      <point x="71" y="597" type="curve" smooth="yes"/>
      <point x="153" y="597" type="line" smooth="yes"/>
      <point x="160" y="597"/>
      <point x="167" y="594"/>
      <point x="171" y="589" type="curve"/>
      <point x="183" y="594"/>
      <point x="195" y="597"/>
      <point x="209" y="597" type="curve" smooth="yes"/>
      <point x="286" y="597" type="line" smooth="yes"/>
      <point x="341" y="597"/>
      <point x="386" y="552"/>
    </contour>
    <contour>
      <point x="317" y="94" type="curve" smooth="yes"/>
      <point x="317" y="502" type="line" smooth="yes"/>
      <point x="317" y="516"/>
      <point x="305" y="527"/>
      <point x="292" y="527" type="curve" smooth="yes"/>
      <point x="203" y="527" type="line" smooth="yes"/>
      <point x="189" y="527"/>
      <point x="178" y="516"/>
      <point x="178" y="502" type="curve" smooth="yes"/>
      <point x="178" y="94" type="line" smooth="yes"/>
      <point x="178" y="80"/>
      <point x="189" y="69"/>
      <point x="203" y="69" type="curve" smooth="yes"/>
      <point x="292" y="69" type="line" smooth="yes"/>
      <point x="305" y="69"/>
      <point x="317" y="80"/>
    </contour>
    <contour>
      <point x="77" y="174" type="curve" smooth="yes"/>
      <point x="155" y="251" type="line"/>
      <point x="155" y="283" type="line" smooth="yes"/>
      <point x="155" y="285.5"/>
      <point x="154" y="286.75"/>
      <point x="152.25" y="286.75" type="curve" smooth="yes"/>
      <point x="150.5" y="286.75"/>
      <point x="148" y="285.5"/>
      <point x="145" y="283" type="curve" smooth="yes"/>
      <point x="67" y="206" type="line"/>
      <point x="67" y="175" type="line" smooth="yes"/>
      <point x="67" y="171.863"/>
      <point x="68.3665" y="170.366"/>
      <point x="70.385" y="170.366" type="curve" smooth="yes"/>
      <point x="72.2277" y="170.366"/>
      <point x="74.6139" y="171.614"/>
    </contour>
    <contour>
      <point x="77" y="108" type="curve" smooth="yes"/>
      <point x="155" y="184" type="line"/>
      <point x="155" y="216" type="line" smooth="yes"/>
      <point x="155" y="219"/>
      <point x="154" y="220.5"/>
      <point x="152.25" y="220.5" type="curve" smooth="yes"/>
      <point x="150.5" y="220.5"/>
      <point x="148" y="219"/>
      <point x="145" y="216" type="curve" smooth="yes"/>
      <point x="67" y="140" type="line"/>
      <point x="67" y="108" type="line" smooth="yes"/>
      <point x="67" y="105.5"/>
      <point x="68.25" y="104.25"/>
      <point x="70.125" y="104.25" type="curve" smooth="yes"/>
      <point x="72" y="104.25"/>
      <point x="74.5" y="105.5"/>
    </contour>
    <contour>
      <point x="77" y="41" type="curve" smooth="yes"/>
      <point x="155" y="117" type="line"/>
      <point x="155" y="149" type="line" smooth="yes"/>
      <point x="155" y="152"/>
      <point x="154" y="153.5"/>
      <point x="152.25" y="153.5" type="curve" smooth="yes"/>
      <point x="150.5" y="153.5"/>
      <point x="148" y="152"/>
      <point x="145" y="149" type="curve" smooth="yes"/>
      <point x="67" y="73" type="line"/>
      <point x="67" y="41" type="line" smooth="yes"/>
      <point x="67" y="38.5"/>
      <point x="68.25" y="37.25"/>
      <point x="70.125" y="37.25" type="curve" smooth="yes"/>
      <point x="72" y="37.25"/>
      <point x="74.5" y="38.5"/>
    </contour>
  </outline>
</glyph>
<glyph name="f" format="1">
  <advance width="403"/>
  <unicode hex="0066"/>
  <outline>
    <contour>
      <point x="386" y="572" type="curve" smooth="yes"/>
      <point x="386" y="468" type="line" smooth="yes"/>
      <point x="386" y="454"/>
      <point x="375" y="443"/>
      <point x="361" y="443" type="curve" smooth="yes"/>
      <point x="279" y="443" type="line" smooth="yes"/>
      <point x="265" y="443"/>
      <point x="254" y="454"/>
      <point x="254" y="468" type="curve" smooth="yes"/>
      <point x="254" y="502" type="line" smooth="yes"/>
      <point x="254" y="515"/>
      <point x="243" y="527"/>
      <point x="229" y="527" type="curve" smooth="yes"/>
      <point x="203" y="527" type="line" smooth="yes"/>
      <point x="190" y="527"/>
      <point x="178" y="515"/>
      <point x="178" y="502" type="curve" smooth="yes"/>
      <point x="178" y="342" type="line"/>
      <point x="293" y="342" type="line" smooth="yes"/>
      <point x="307" y="342"/>
      <point x="319" y="330"/>
      <point x="319" y="316" type="curve" smooth="yes"/>
      <point x="319" y="303"/>
      <point x="307" y="292"/>
      <point x="293" y="292" type="curve" smooth="yes"/>
      <point x="178" y="292" type="line"/>
      <point x="178" y="-1" type="line"/>
      <point x="72" y="-1" type="line" smooth="yes"/>
      <point x="58" y="-1"/>
      <point x="47" y="10"/>
      <point x="47" y="24" type="curve" smooth="yes"/>
      <point x="47" y="317" type="line" smooth="yes"/>
      <point x="47" y="331"/>
      <point x="58" y="342"/>
      <point x="72" y="342" type="curve" smooth="yes"/>
      <point x="109" y="342" type="line"/>
      <point x="109" y="463" type="line"/>
      <point x="71" y="463" type="line" smooth="yes"/>
      <point x="57" y="463"/>
      <point x="46" y="474"/>
      <point x="46" y="488" type="curve" smooth="yes"/>
      <point x="46" y="572" type="line" smooth="yes"/>
      <point x="46" y="586"/>
      <point x="57" y="597"/>
      <point x="71" y="597" type="curve" smooth="yes"/>
      <point x="153" y="597" type="line" smooth="yes"/>
      <point x="160" y="597"/>
      <point x="166" y="594"/>
      <point x="170" y="589" type="curve"/>
      <point x="182" y="594"/>
      <point x="195" y="597"/>
      <point x="209" y="597" type="curve" smooth="yes"/>
      <point x="361" y="597" type="line" smooth="yes"/>
      <point x="375" y="597"/>
      <point x="386" y="586"/>
    </contour>
    <contour>
      <point x="80" y="174" type="curve" smooth="yes"/>
      <point x="158" y="251" type="line"/>
      <point x="158" y="283" type="line" smooth="yes"/>
      <point x="158" y="288"/>
      <point x="154" y="288"/>
      <point x="148" y="283" type="curve" smooth="yes"/>
      <point x="70" y="206" type="line"/>
      <point x="70" y="175" type="line" smooth="yes"/>
      <point x="70" y="169"/>
      <point x="75" y="169"/>
    </contour>
    <contour>
      <point x="80" y="108" type="curve" smooth="yes"/>
      <point x="158" y="184" type="line"/>
      <point x="158" y="216" type="line" smooth="yes"/>
      <point x="158" y="222"/>
      <point x="154" y="222"/>
      <point x="148" y="216" type="curve" smooth="yes"/>
      <point x="70" y="140" type="line"/>
      <point x="70" y="108" type="line" smooth="yes"/>
      <point x="70" y="103"/>
      <point x="75" y="103"/>
    </contour>
    <contour>
      <point x="80" y="41" type="curve" smooth="yes"/>
      <point x="158" y="117" type="line"/>
      <point x="158" y="149" type="line" smooth="yes"/>
      <point x="158" y="155"/>
      <point x="154" y="155"/>
      <point x="148" y="149" type="curve" smooth="yes"/>
      <point x="70" y="73" type="line"/>
      <point x="70" y="41" type="line" smooth="yes"/>
      <point x="70" y="36"/>
      <point x="75" y="36"/>
    </contour>
  </outline>
</glyph>
<glyph name="h" format="1">
  <advance width="482"/>
  <unicode hex="0068"/>
  <outline>
    <contour>
      <point x="445" y="172" type="curve" smooth="yes"/>
      <point x="445" y="24" type="line" smooth="yes"/>
      <point x="445" y="10"/>
      <point x="434" y="-1"/>
      <point x="420" y="-1" type="curve" smooth="yes"/>
      <point x="338" y="-1" type="line" smooth="yes"/>
      <point x="324" y="-1"/>
      <point x="313" y="10"/>
      <point x="313" y="24" type="curve" smooth="yes"/>
      <point x="313" y="223" type="line"/>
      <point x="276" y="223" type="line" smooth="yes"/>
      <point x="262" y="223"/>
      <point x="251" y="234"/>
      <point x="251" y="248" type="curve" smooth="yes"/>
      <point x="250" y="267" type="line" smooth="yes"/>
      <point x="250" y="281"/>
      <point x="239" y="292"/>
      <point x="225" y="292" type="curve" smooth="yes"/>
      <point x="174" y="292" type="line"/>
      <point x="174" y="262"/>
      <point x="175" y="312"/>
      <point x="174" y="24" type="curve" smooth="yes"/>
      <point x="174" y="10"/>
      <point x="163" y="-1"/>
      <point x="149" y="-1" type="curve" smooth="yes"/>
      <point x="68" y="-1" type="line" smooth="yes"/>
      <point x="54" y="-1"/>
      <point x="43" y="10"/>
      <point x="43" y="24" type="curve" smooth="yes"/>
      <point x="43" y="317" type="line" smooth="yes"/>
      <point x="43" y="331"/>
      <point x="54" y="342"/>
      <point x="68" y="342" type="curve" smooth="yes"/>
      <point x="105" y="342" type="line"/>
      <point x="105" y="572" type="line" smooth="yes"/>
      <point x="105" y="586"/>
      <point x="117" y="597"/>
      <point x="131" y="597" type="curve" smooth="yes"/>
      <point x="150" y="597" type="line" smooth="yes"/>
      <point x="164" y="597"/>
      <point x="174" y="586"/>
      <point x="174" y="572" type="curve" smooth="yes"/>
      <point x="174" y="342" type="line"/>
      <point x="313" y="342" type="line"/>
      <point x="313" y="572" type="line" smooth="yes"/>
      <point x="313" y="586"/>
      <point x="325" y="597"/>
      <point x="339" y="597" type="curve" smooth="yes"/>
      <point x="358" y="597" type="line" smooth="yes"/>
      <point x="372" y="597"/>
      <point x="383" y="586"/>
      <point x="383" y="572" type="curve" smooth="yes"/>
      <point x="383" y="197" type="line"/>
      <point x="420" y="197" type="line" smooth="yes"/>
      <point x="434" y="197"/>
      <point x="445" y="186"/>
    </contour>
    <contour>
      <point x="76" y="174" type="curve" smooth="yes"/>
      <point x="154" y="251" type="line"/>
      <point x="154" y="283" type="line" smooth="yes"/>
      <point x="154" y="285"/>
      <point x="153" y="287"/>
      <point x="151" y="287" type="curve" smooth="yes"/>
      <point x="149" y="287"/>
      <point x="147" y="285"/>
      <point x="144" y="283" type="curve" smooth="yes"/>
      <point x="66" y="206" type="line"/>
      <point x="66" y="175" type="line" smooth="yes"/>
      <point x="66" y="172"/>
      <point x="67" y="170"/>
      <point x="69" y="170" type="curve" smooth="yes"/>
      <point x="71" y="170"/>
      <point x="74" y="172"/>
    </contour>
    <contour>
      <point x="76" y="108" type="curve" smooth="yes"/>
      <point x="154" y="184" type="line"/>
      <point x="154" y="216" type="line" smooth="yes"/>
      <point x="154" y="219"/>
      <point x="153" y="220"/>
      <point x="151" y="220" type="curve" smooth="yes"/>
      <point x="149" y="220"/>
      <point x="147" y="219"/>
      <point x="144" y="216" type="curve" smooth="yes"/>
      <point x="66" y="140" type="line"/>
      <point x="66" y="108" type="line" smooth="yes"/>
      <point x="66" y="106"/>
      <point x="67" y="104"/>
      <point x="69" y="104" type="curve" smooth="yes"/>
      <point x="71" y="104"/>
      <point x="74" y="106"/>
    </contour>
    <contour>
      <point x="76" y="41" type="curve" smooth="yes"/>
      <point x="154" y="117" type="line"/>
      <point x="154" y="149" type="line" smooth="yes"/>
      <point x="154" y="152"/>
      <point x="153" y="154"/>
      <point x="151" y="154" type="curve" smooth="yes"/>
      <point x="149" y="154"/>
      <point x="147" y="152"/>
      <point x="144" y="149" type="curve" smooth="yes"/>
      <point x="66" y="73" type="line"/>
      <point x="66" y="41" type="line" smooth="yes"/>
      <point x="66" y="39"/>
      <point x="67" y="37"/>
      <point x="69" y="37" type="curve" smooth="yes"/>
      <point x="71" y="37"/>
      <point x="74" y="39"/>
    </contour>
  </outline>
</glyph>
<glyph name="i" format="1">
  <advance width="266"/>
  <unicode hex="0069"/>
  <outline>
    <contour>
      <point x="222" y="572" type="curve" smooth="yes"/>
      <point x="222" y="24" type="line" smooth="yes"/>
      <point x="222" y="10"/>
      <point x="211" y="-1"/>
      <point x="197" y="-1" type="curve" smooth="yes"/>
      <point x="115" y="-1" type="line" smooth="yes"/>
      <point x="102" y="-1"/>
      <point x="90" y="10"/>
      <point x="90" y="24" type="curve" smooth="yes"/>
      <point x="90" y="317" type="line" smooth="yes"/>
      <point x="90" y="331"/>
      <point x="102" y="342"/>
      <point x="115" y="342" type="curve" smooth="yes"/>
      <point x="152" y="342" type="line"/>
      <point x="152" y="463" type="line"/>
      <point x="115" y="463" type="line" smooth="yes"/>
      <point x="101" y="463"/>
      <point x="90" y="474"/>
      <point x="90" y="488" type="curve" smooth="yes"/>
      <point x="90" y="572" type="line" smooth="yes"/>
      <point x="90" y="586"/>
      <point x="101" y="597"/>
      <point x="115" y="597" type="curve" smooth="yes"/>
      <point x="197" y="597" type="line" smooth="yes"/>
      <point x="211" y="597"/>
      <point x="222" y="586"/>
    </contour>
    <contour>
      <point x="125" y="174" type="curve" smooth="yes"/>
      <point x="203" y="251" type="line"/>
      <point x="203" y="283" type="line" smooth="yes"/>
      <point x="203" y="285"/>
      <point x="202" y="287"/>
      <point x="200" y="287" type="curve" smooth="yes"/>
      <point x="198" y="287"/>
      <point x="196" y="285"/>
      <point x="193" y="283" type="curve" smooth="yes"/>
      <point x="115" y="206" type="line"/>
      <point x="115" y="175" type="line" smooth="yes"/>
      <point x="115" y="172"/>
      <point x="116" y="170"/>
      <point x="118" y="170" type="curve" smooth="yes"/>
      <point x="120" y="170"/>
      <point x="123" y="172"/>
    </contour>
    <contour>
      <point x="125" y="108" type="curve" smooth="yes"/>
      <point x="203" y="184" type="line"/>
      <point x="203" y="216" type="line" smooth="yes"/>
      <point x="203" y="219"/>
      <point x="202" y="220"/>
      <point x="200" y="220" type="curve" smooth="yes"/>
      <point x="198" y="220"/>
      <point x="196" y="219"/>
      <point x="193" y="216" type="curve" smooth="yes"/>
      <point x="115" y="140" type="line"/>
      <point x="115" y="108" type="line" smooth="yes"/>
      <point x="115" y="106"/>
      <point x="116" y="104"/>
      <point x="118" y="104" type="curve" smooth="yes"/>
      <point x="120" y="104"/>
      <point x="123" y="106"/>
    </contour>
    <contour>
      <point x="125" y="41" type="curve" smooth="yes"/>
      <point x="203" y="117" type="line"/>
      <point x="203" y="149" type="line" smooth="yes"/>
      <point x="203" y="152"/>
      <point x="202" y="154"/>
      <point x="200" y="154" type="curve" smooth="yes"/>
      <point x="198" y="154"/>
      <point x="196" y="152"/>
      <point x="193" y="149" type="curve" smooth="yes"/>
      <point x="115" y="73" type="line"/>
      <point x="115" y="41" type="line" smooth="yes"/>
      <point x="115" y="39"/>
      <point x="116" y="37"/>
      <point x="118" y="37" type="curve" smooth="yes"/>
      <point x="120" y="37"/>
      <point x="123" y="39"/>
    </contour>
  </outline>
</glyph>
<glyph name="j" format="1">
  <advance width="421"/>
  <unicode hex="006A"/>
  <outline>
    <contour>
      <point x="376" y="572" type="curve" smooth="yes"/>
      <point x="376" y="24" type="line" smooth="yes"/>
      <point x="376" y="10"/>
      <point x="365" y="-1"/>
      <point x="351" y="-1" type="curve" smooth="yes"/>
      <point x="65" y="-1" type="line" smooth="yes"/>
      <point x="51" y="-1"/>
      <point x="40" y="10"/>
      <point x="40" y="24" type="curve" smooth="yes"/>
      <point x="40" y="108" type="line" smooth="yes"/>
      <point x="40" y="122"/>
      <point x="51" y="133"/>
      <point x="65" y="133" type="curve" smooth="yes"/>
      <point x="147" y="133" type="line" smooth="yes"/>
      <point x="161" y="133"/>
      <point x="172" y="122"/>
      <point x="172" y="108" type="curve" smooth="yes"/>
      <point x="172" y="74" type="line" smooth="yes"/>
      <point x="172" y="60"/>
      <point x="183" y="49"/>
      <point x="197" y="49" type="curve" smooth="yes"/>
      <point x="245" y="49" type="line"/>
      <point x="245" y="317" type="line" smooth="yes"/>
      <point x="245" y="331"/>
      <point x="256" y="342"/>
      <point x="270" y="342" type="curve" smooth="yes"/>
      <point x="307" y="342" type="line"/>
      <point x="307" y="463" type="line"/>
      <point x="269" y="463" type="line" smooth="yes"/>
      <point x="256" y="463"/>
      <point x="244" y="474"/>
      <point x="244" y="488" type="curve" smooth="yes"/>
      <point x="244" y="572" type="line" smooth="yes"/>
      <point x="244" y="586"/>
      <point x="256" y="597"/>
      <point x="269" y="597" type="curve" smooth="yes"/>
      <point x="351" y="597" type="line" smooth="yes"/>
      <point x="365" y="597"/>
      <point x="376" y="586"/>
    </contour>
    <contour>
      <point x="280" y="174" type="curve" smooth="yes"/>
      <point x="358" y="251" type="line"/>
      <point x="358" y="283" type="line" smooth="yes"/>
      <point x="358" y="288"/>
      <point x="354" y="288"/>
      <point x="348" y="283" type="curve" smooth="yes"/>
      <point x="270" y="206" type="line"/>
      <point x="270" y="175" type="line" smooth="yes"/>
      <point x="270" y="169"/>
      <point x="275" y="169"/>
    </contour>
    <contour>
      <point x="280" y="108" type="curve" smooth="yes"/>
      <point x="358" y="184" type="line"/>
      <point x="358" y="216" type="line" smooth="yes"/>
      <point x="358" y="222"/>
      <point x="354" y="222"/>
      <point x="348" y="216" type="curve" smooth="yes"/>
      <point x="270" y="140" type="line"/>
      <point x="270" y="108" type="line" smooth="yes"/>
      <point x="270" y="103"/>
      <point x="275" y="103"/>
    </contour>
    <contour>
      <point x="280" y="41" type="curve" smooth="yes"/>
      <point x="358" y="117" type="line"/>
      <point x="358" y="149" type="line" smooth="yes"/>
      <point x="358" y="155"/>
      <point x="354" y="155"/>
      <point x="348" y="149" type="curve" smooth="yes"/>
      <point x="270" y="73" type="line"/>
      <point x="270" y="41" type="line" smooth="yes"/>
      <point x="270" y="36"/>
      <point x="275" y="36"/>
    </contour>
  </outline>
</glyph>
<glyph name="k" format="1">
  <advance width="435"/>
  <unicode hex="006B"/>
  <outline>
    <contour>
      <point x="393" y="277" type="curve" smooth="yes"/>
      <point x="393" y="24" type="line" smooth="yes"/>
      <point x="393" y="10"/>
      <point x="382" y="-1"/>
      <point x="369" y="-1" type="curve" smooth="yes"/>
      <point x="350" y="-1" type="line" smooth="yes"/>
      <point x="336" y="-1"/>
      <point x="324" y="10"/>
      <point x="324" y="24" type="curve" smooth="yes"/>
      <point x="324" y="223" type="line"/>
      <point x="287" y="223" type="line" smooth="yes"/>
      <point x="273" y="223"/>
      <point x="262" y="234"/>
      <point x="262" y="248" type="curve" smooth="yes"/>
      <point x="261" y="267" type="line" smooth="yes"/>
      <point x="261" y="281"/>
      <point x="250" y="292"/>
      <point x="236" y="292" type="curve" smooth="yes"/>
      <point x="186" y="292" type="line"/>
      <point x="186" y="-1" type="line"/>
      <point x="79" y="-1" type="line" smooth="yes"/>
      <point x="65" y="-1"/>
      <point x="54" y="10"/>
      <point x="54" y="24" type="curve" smooth="yes"/>
      <point x="53" y="317" type="line" smooth="yes"/>
      <point x="53" y="331"/>
      <point x="64" y="342"/>
      <point x="78" y="342" type="curve" smooth="yes"/>
      <point x="115" y="342" type="line"/>
      <point x="115" y="463" type="line"/>
      <point x="78" y="463" type="line" smooth="yes"/>
      <point x="64" y="463"/>
      <point x="53" y="475"/>
      <point x="53" y="488" type="curve" smooth="yes"/>
      <point x="53" y="571" type="line" smooth="yes"/>
      <point x="53" y="585"/>
      <point x="64" y="596"/>
      <point x="78" y="596" type="curve" smooth="yes"/>
      <point x="160" y="596" type="line" smooth="yes"/>
      <point x="169" y="596"/>
      <point x="186" y="585"/>
      <point x="186" y="571" type="curve" smooth="yes"/>
      <point x="186" y="342" type="line"/>
      <point x="299" y="342" type="line"/>
      <point x="299" y="572" type="line" smooth="yes"/>
      <point x="299" y="586"/>
      <point x="312" y="597"/>
      <point x="326" y="597" type="curve" smooth="yes"/>
      <point x="344" y="597" type="line" smooth="yes"/>
      <point x="358" y="597"/>
      <point x="369" y="586"/>
      <point x="369" y="572" type="curve" smooth="yes"/>
      <point x="369" y="327" type="line" smooth="yes"/>
      <point x="369" y="313"/>
      <point x="357" y="302"/>
      <point x="344" y="302" type="curve" smooth="yes"/>
      <point x="369" y="302" type="line" smooth="yes"/>
      <point x="383" y="302"/>
      <point x="393" y="291"/>
    </contour>
    <contour>
      <point x="89" y="174" type="curve" smooth="yes"/>
      <point x="167" y="251" type="line"/>
      <point x="167" y="283" type="line" smooth="yes"/>
      <point x="167" y="288"/>
      <point x="163" y="288"/>
      <point x="157" y="283" type="curve" smooth="yes"/>
      <point x="79" y="206" type="line"/>
      <point x="79" y="175" type="line" smooth="yes"/>
      <point x="79" y="169"/>
      <point x="84" y="169"/>
    </contour>
    <contour>
      <point x="89" y="108" type="curve" smooth="yes"/>
      <point x="167" y="184" type="line"/>
      <point x="167" y="216" type="line" smooth="yes"/>
      <point x="167" y="222"/>
      <point x="163" y="222"/>
      <point x="157" y="216" type="curve" smooth="yes"/>
      <point x="79" y="140" type="line"/>
      <point x="79" y="108" type="line" smooth="yes"/>
      <point x="79" y="103"/>
      <point x="84" y="103"/>
    </contour>
    <contour>
      <point x="89" y="41" type="curve" smooth="yes"/>
      <point x="167" y="117" type="line"/>
      <point x="167" y="149" type="line" smooth="yes"/>
      <point x="167" y="155"/>
      <point x="163" y="155"/>
      <point x="157" y="149" type="curve" smooth="yes"/>
      <point x="79" y="73" type="line"/>
      <point x="79" y="41" type="line" smooth="yes"/>
      <point x="79" y="36"/>
      <point x="84" y="36"/>
    </contour>
  </outline>
</glyph>
<glyph name="l" format="1">
  <advance width="418"/>
  <unicode hex="006C"/>
  <outline>
    <contour>
      <point x="395" y="108" type="curve" smooth="yes"/>
      <point x="395" y="24" type="line" smooth="yes"/>
      <point x="395" y="10"/>
      <point x="384" y="-1"/>
      <point x="370" y="-1" type="curve" smooth="yes"/>
      <point x="45" y="-1" type="line" smooth="yes"/>
      <point x="32" y="-1"/>
      <point x="20" y="10"/>
      <point x="20" y="24" type="curve" smooth="yes"/>
      <point x="20" y="317" type="line" smooth="yes"/>
      <point x="20" y="331"/>
      <point x="32" y="342"/>
      <point x="45" y="342" type="curve" smooth="yes"/>
      <point x="82" y="342" type="line"/>
      <point x="82" y="463" type="line"/>
      <point x="45" y="463" type="line" smooth="yes"/>
      <point x="31" y="463"/>
      <point x="20" y="474"/>
      <point x="20" y="488" type="curve" smooth="yes"/>
      <point x="20" y="572" type="line" smooth="yes"/>
      <point x="20" y="586"/>
      <point x="31" y="597"/>
      <point x="45" y="597" type="curve" smooth="yes"/>
      <point x="127" y="597" type="line" smooth="yes"/>
      <point x="141" y="597"/>
      <point x="152" y="586"/>
      <point x="152" y="572" type="curve" smooth="yes"/>
      <point x="152" y="49" type="line"/>
      <point x="238" y="49" type="line" smooth="yes"/>
      <point x="252" y="49"/>
      <point x="263" y="60"/>
      <point x="263" y="74" type="curve" smooth="yes"/>
      <point x="263" y="108" type="line" smooth="yes"/>
      <point x="263" y="122"/>
      <point x="275" y="133"/>
      <point x="288" y="133" type="curve" smooth="yes"/>
      <point x="370" y="133" type="line" smooth="yes"/>
      <point x="384" y="133"/>
      <point x="395" y="122"/>
    </contour>
    <contour>
      <point x="53" y="174" type="curve" smooth="yes"/>
      <point x="131" y="251" type="line"/>
      <point x="131" y="283" type="line" smooth="yes"/>
      <point x="131" y="288"/>
      <point x="127" y="288"/>
      <point x="121" y="283" type="curve" smooth="yes"/>
      <point x="43" y="206" type="line"/>
      <point x="43" y="175" type="line" smooth="yes"/>
      <point x="43" y="169"/>
      <point x="48" y="169"/>
    </contour>
    <contour>
      <point x="53" y="108" type="curve" smooth="yes"/>
      <point x="131" y="184" type="line"/>
      <point x="131" y="216" type="line" smooth="yes"/>
      <point x="131" y="222"/>
      <point x="127" y="222"/>
      <point x="121" y="216" type="curve" smooth="yes"/>
      <point x="43" y="140" type="line"/>
      <point x="43" y="108" type="line" smooth="yes"/>
      <point x="43" y="103"/>
      <point x="48" y="103"/>
    </contour>
    <contour>
      <point x="53" y="41" type="curve" smooth="yes"/>
      <point x="131" y="117" type="line"/>
      <point x="131" y="149" type="line" smooth="yes"/>
      <point x="131" y="155"/>
      <point x="127" y="155"/>
      <point x="121" y="149" type="curve" smooth="yes"/>
      <point x="43" y="73" type="line"/>
      <point x="43" y="41" type="line" smooth="yes"/>
      <point x="43" y="36"/>
      <point x="48" y="36"/>
    </contour>
  </outline>
</glyph>
<glyph name="m" format="1">
  <advance width="586"/>
  <unicode hex="006D"/>
  <outline>
    <contour>
      <point x="551" y="172" type="curve" smooth="yes"/>
      <point x="551" y="24" type="line" smooth="yes"/>
      <point x="551" y="10"/>
      <point x="539" y="-1"/>
      <point x="526" y="-1" type="curve" smooth="yes"/>
      <point x="444" y="-1" type="line" smooth="yes"/>
      <point x="430" y="-1"/>
      <point x="419" y="10"/>
      <point x="419" y="24" type="curve" smooth="yes"/>
      <point x="419" y="502" type="line" smooth="yes"/>
      <point x="419" y="516"/>
      <point x="407" y="527"/>
      <point x="394" y="527" type="curve" smooth="yes"/>
      <point x="355" y="527" type="line" smooth="yes"/>
      <point x="341" y="527"/>
      <point x="330" y="516"/>
      <point x="330" y="502" type="curve" smooth="yes"/>
      <point x="330" y="250" type="line" smooth="yes"/>
      <point x="330" y="237"/>
      <point x="318" y="225"/>
      <point x="305" y="225" type="curve" smooth="yes"/>
      <point x="286" y="225" type="line" smooth="yes"/>
      <point x="272" y="225"/>
      <point x="261" y="237"/>
      <point x="261" y="250" type="curve" smooth="yes"/>
      <point x="261" y="502" type="line" smooth="yes"/>
      <point x="261" y="516"/>
      <point x="249" y="527"/>
      <point x="236" y="527" type="curve" smooth="yes"/>
      <point x="197" y="527" type="line" smooth="yes"/>
      <point x="183" y="527"/>
      <point x="172" y="516"/>
      <point x="172" y="502" type="curve" smooth="yes"/>
      <point x="172" y="24" type="line" smooth="yes"/>
      <point x="172" y="10"/>
      <point x="161" y="-1"/>
      <point x="147" y="-1" type="curve" smooth="yes"/>
      <point x="66" y="-1" type="line" smooth="yes"/>
      <point x="52" y="-1"/>
      <point x="41" y="10"/>
      <point x="41" y="24" type="curve" smooth="yes"/>
      <point x="41" y="317" type="line" smooth="yes"/>
      <point x="41" y="331"/>
      <point x="52" y="342"/>
      <point x="66" y="342" type="curve" smooth="yes"/>
      <point x="103" y="342" type="line"/>
      <point x="103" y="497" type="line" smooth="yes"/>
      <point x="103" y="552"/>
      <point x="147" y="597"/>
      <point x="203" y="597" type="curve" smooth="yes"/>
      <point x="230" y="597" type="line" smooth="yes"/>
      <point x="255" y="597"/>
      <point x="279" y="588"/>
      <point x="296" y="573" type="curve"/>
      <point x="314" y="587"/>
      <point x="336" y="597"/>
      <point x="361" y="597" type="curve" smooth="yes"/>
      <point x="388" y="597" type="line" smooth="yes"/>
      <point x="443" y="597"/>
      <point x="488" y="552"/>
      <point x="488" y="497" type="curve" smooth="yes"/>
      <point x="488" y="197" type="line"/>
      <point x="526" y="197" type="line" smooth="yes"/>
      <point x="539" y="197"/>
      <point x="551" y="186"/>
    </contour>
    <contour>
      <point x="72" y="174" type="curve" smooth="yes"/>
      <point x="150" y="251" type="line"/>
      <point x="150" y="283" type="line" smooth="yes"/>
      <point x="150" y="288"/>
      <point x="146" y="288"/>
      <point x="140" y="283" type="curve" smooth="yes"/>
      <point x="62" y="206" type="line"/>
      <point x="62" y="175" type="line" smooth="yes"/>
      <point x="62" y="169"/>
      <point x="67" y="169"/>
    </contour>
    <contour>
      <point x="72" y="108" type="curve" smooth="yes"/>
      <point x="150" y="184" type="line"/>
      <point x="150" y="216" type="line" smooth="yes"/>
      <point x="150" y="222"/>
      <point x="146" y="222"/>
      <point x="140" y="216" type="curve" smooth="yes"/>
      <point x="62" y="140" type="line"/>
      <point x="62" y="108" type="line" smooth="yes"/>
      <point x="62" y="103"/>
      <point x="67" y="103"/>
    </contour>
    <contour>
      <point x="72" y="41" type="curve" smooth="yes"/>
      <point x="150" y="117" type="line"/>
      <point x="150" y="149" type="line" smooth="yes"/>
      <point x="150" y="155"/>
      <point x="146" y="155"/>
      <point x="140" y="149" type="curve" smooth="yes"/>
      <point x="62" y="73" type="line"/>
      <point x="62" y="41" type="line" smooth="yes"/>
      <point x="62" y="36"/>
      <point x="67" y="36"/>
    </contour>
  </outline>
</glyph>
<glyph name="n" format="1">
  <advance width="586"/>
  <unicode hex="006E"/>
  <outline>
    <contour>
      <point x="550" y="572" type="curve" smooth="yes"/>
      <point x="550" y="424" type="line" smooth="yes"/>
      <point x="550" y="410"/>
      <point x="539" y="399"/>
      <point x="525" y="399" type="curve" smooth="yes"/>
      <point x="488" y="399" type="line"/>
      <point x="488" y="99" type="line" smooth="yes"/>
      <point x="488" y="44"/>
      <point x="443" y="-1"/>
      <point x="388" y="-1" type="curve" smooth="yes"/>
      <point x="360" y="-1" type="line" smooth="yes"/>
      <point x="305" y="-1"/>
      <point x="260" y="44"/>
      <point x="260" y="99" type="curve" smooth="yes"/>
      <point x="260" y="502" type="line" smooth="yes"/>
      <point x="260" y="516"/>
      <point x="249" y="527"/>
      <point x="235" y="527" type="curve" smooth="yes"/>
      <point x="197" y="527" type="line" smooth="yes"/>
      <point x="183" y="527"/>
      <point x="172" y="516"/>
      <point x="172" y="502" type="curve" smooth="yes"/>
      <point x="172" y="24" type="line" smooth="yes"/>
      <point x="172" y="10"/>
      <point x="161" y="-1"/>
      <point x="147" y="-1" type="curve" smooth="yes"/>
      <point x="65" y="-1" type="line" smooth="yes"/>
      <point x="52" y="-1"/>
      <point x="40" y="10"/>
      <point x="40" y="24" type="curve" smooth="yes"/>
      <point x="40" y="317" type="line" smooth="yes"/>
      <point x="40" y="331"/>
      <point x="52" y="342"/>
      <point x="65" y="342" type="curve" smooth="yes"/>
      <point x="102" y="342" type="line"/>
      <point x="102" y="497" type="line" smooth="yes"/>
      <point x="102" y="552"/>
      <point x="147" y="597"/>
      <point x="202" y="597" type="curve" smooth="yes"/>
      <point x="230" y="597" type="line" smooth="yes"/>
      <point x="285" y="597"/>
      <point x="330" y="552"/>
      <point x="330" y="497" type="curve" smooth="yes"/>
      <point x="330" y="94" type="line" smooth="yes"/>
      <point x="330" y="80"/>
      <point x="341" y="69"/>
      <point x="355" y="69" type="curve" smooth="yes"/>
      <point x="393" y="69" type="line" smooth="yes"/>
      <point x="407" y="69"/>
      <point x="418" y="80"/>
      <point x="418" y="94" type="curve" smooth="yes"/>
      <point x="418" y="572" type="line" smooth="yes"/>
      <point x="418" y="586"/>
      <point x="430" y="597"/>
      <point x="443" y="597" type="curve" smooth="yes"/>
      <point x="525" y="597" type="line" smooth="yes"/>
      <point x="539" y="597"/>
      <point x="550" y="586"/>
    </contour>
    <contour>
      <point x="70" y="174" type="curve" smooth="yes"/>
      <point x="148" y="251" type="line"/>
      <point x="148" y="283" type="line" smooth="yes"/>
      <point x="148" y="288"/>
      <point x="144" y="288"/>
      <point x="138" y="283" type="curve" smooth="yes"/>
      <point x="60" y="206" type="line"/>
      <point x="60" y="175" type="line" smooth="yes"/>
      <point x="60" y="169"/>
      <point x="64" y="169"/>
    </contour>
    <contour>
      <point x="70" y="108" type="curve" smooth="yes"/>
      <point x="148" y="184" type="line"/>
      <point x="148" y="216" type="line" smooth="yes"/>
      <point x="148" y="222"/>
      <point x="144" y="222"/>
      <point x="138" y="216" type="curve" smooth="yes"/>
      <point x="60" y="140" type="line"/>
      <point x="60" y="108" type="line" smooth="yes"/>
      <point x="60" y="103"/>
      <point x="64" y="103"/>
    </contour>
    <contour>
      <point x="70" y="41" type="curve" smooth="yes"/>
      <point x="148" y="117" type="line"/>
      <point x="148" y="149" type="line" smooth="yes"/>
      <point x="148" y="155"/>
      <point x="144" y="155"/>
      <point x="138" y="149" type="curve" smooth="yes"/>
      <point x="60" y="73" type="line"/>
      <point x="60" y="41" type="line" smooth="yes"/>
      <point x="60" y="36"/>
      <point x="64" y="36"/>
    </contour>
  </outline>
</glyph>
<glyph name="p" format="1">
  <advance width="411"/>
  <unicode hex="0070"/>
  <outline>
    <contour>
      <point x="379" y="497" type="curve" smooth="yes"/>
      <point x="379" y="372" type="line" smooth="yes"/>
      <point x="379" y="317"/>
      <point x="334" y="272"/>
      <point x="279" y="272" type="curve" smooth="yes"/>
      <point x="171" y="272" type="line"/>
      <point x="171" y="24" type="line" smooth="yes"/>
      <point x="171" y="10"/>
      <point x="160" y="-1"/>
      <point x="146" y="-1" type="curve" smooth="yes"/>
      <point x="64" y="-1" type="line" smooth="yes"/>
      <point x="50" y="-1"/>
      <point x="39" y="10"/>
      <point x="39" y="24" type="curve" smooth="yes"/>
      <point x="39" y="317" type="line" smooth="yes"/>
      <point x="39" y="331"/>
      <point x="50" y="342"/>
      <point x="64" y="342" type="curve" smooth="yes"/>
      <point x="101" y="342" type="line"/>
      <point x="101" y="463" type="line"/>
      <point x="64" y="463" type="line" smooth="yes"/>
      <point x="50" y="463"/>
      <point x="39" y="475"/>
      <point x="39" y="488" type="curve" smooth="yes"/>
      <point x="39" y="572" type="line" smooth="yes"/>
      <point x="39" y="586"/>
      <point x="50" y="597"/>
      <point x="64" y="597" type="curve" smooth="yes"/>
      <point x="146" y="597" type="line" smooth="yes"/>
      <point x="153" y="597"/>
      <point x="159" y="594"/>
      <point x="163" y="590" type="curve"/>
      <point x="175" y="594"/>
      <point x="188" y="597"/>
      <point x="201" y="597" type="curve" smooth="yes"/>
      <point x="279" y="597" type="line" smooth="yes"/>
      <point x="334" y="597"/>
      <point x="379" y="552"/>
    </contour>
    <contour>
      <point x="309" y="367" type="curve" smooth="yes"/>
      <point x="309" y="502" type="line" smooth="yes"/>
      <point x="309" y="516"/>
      <point x="298" y="527"/>
      <point x="284" y="527" type="curve" smooth="yes"/>
      <point x="196" y="527" type="line" smooth="yes"/>
      <point x="182" y="527"/>
      <point x="171" y="516"/>
      <point x="171" y="502" type="curve" smooth="yes"/>
      <point x="171" y="367" type="line" smooth="yes"/>
      <point x="171" y="353"/>
      <point x="182" y="342"/>
      <point x="196" y="342" type="curve" smooth="yes"/>
      <point x="284" y="342" type="line" smooth="yes"/>
      <point x="298" y="342"/>
      <point x="309" y="353"/>
    </contour>
    <contour>
      <point x="73" y="174" type="curve" smooth="yes"/>
      <point x="151" y="251" type="line"/>
      <point x="151" y="283" type="line" smooth="yes"/>
      <point x="151" y="288"/>
      <point x="147" y="288"/>
      <point x="141" y="283" type="curve" smooth="yes"/>
      <point x="63" y="206" type="line"/>
      <point x="63" y="175" type="line" smooth="yes"/>
      <point x="63" y="169"/>
      <point x="68" y="169"/>
    </contour>
    <contour>
      <point x="73" y="108" type="curve" smooth="yes"/>
      <point x="151" y="184" type="line"/>
      <point x="151" y="216" type="line" smooth="yes"/>
      <point x="151" y="222"/>
      <point x="147" y="222"/>
      <point x="141" y="216" type="curve" smooth="yes"/>
      <point x="63" y="140" type="line"/>
      <point x="63" y="108" type="line" smooth="yes"/>
      <point x="63" y="103"/>
      <point x="68" y="103"/>
    </contour>
    <contour>
      <point x="73" y="41" type="curve" smooth="yes"/>
      <point x="151" y="117" type="line"/>
      <point x="151" y="149" type="line" smooth="yes"/>
      <point x="151" y="155"/>
      <point x="147" y="155"/>
      <point x="141" y="149" type="curve" smooth="yes"/>
      <point x="63" y="73" type="line"/>
      <point x="63" y="41" type="line" smooth="yes"/>
      <point x="63" y="36"/>
      <point x="68" y="36"/>
    </contour>
  </outline>
</glyph>
<glyph name="q" format="1">
  <advance width="415"/>
  <unicode hex="0071"/>
  <outline>
    <contour>
      <point x="373" y="317" type="curve" smooth="yes"/>
      <point x="373" y="24" type="line" smooth="yes"/>
      <point x="373" y="10"/>
      <point x="362" y="-1"/>
      <point x="348" y="-1" type="curve" smooth="yes"/>
      <point x="266" y="-1" type="line" smooth="yes"/>
      <point x="252" y="-1"/>
      <point x="241" y="10"/>
      <point x="241" y="24" type="curve" smooth="yes"/>
      <point x="241" y="272" type="line"/>
      <point x="133" y="272" type="line" smooth="yes"/>
      <point x="78" y="272"/>
      <point x="33" y="317"/>
      <point x="33" y="372" type="curve" smooth="yes"/>
      <point x="33" y="497" type="line" smooth="yes"/>
      <point x="33" y="552"/>
      <point x="78" y="597"/>
      <point x="133" y="597" type="curve" smooth="yes"/>
      <point x="210" y="597" type="line" smooth="yes"/>
      <point x="224" y="597"/>
      <point x="237" y="594"/>
      <point x="248" y="590" type="curve"/>
      <point x="253" y="594"/>
      <point x="259" y="597"/>
      <point x="266" y="597" type="curve" smooth="yes"/>
      <point x="348" y="597" type="line" smooth="yes"/>
      <point x="362" y="597"/>
      <point x="373" y="586"/>
      <point x="373" y="572" type="curve" smooth="yes"/>
      <point x="373" y="488" type="line" smooth="yes"/>
      <point x="373" y="475"/>
      <point x="362" y="463"/>
      <point x="348" y="463" type="curve" smooth="yes"/>
      <point x="310" y="463" type="line"/>
      <point x="310" y="342" type="line"/>
      <point x="348" y="342" type="line" smooth="yes"/>
      <point x="362" y="342"/>
      <point x="373" y="331"/>
    </contour>
    <contour>
      <point x="241" y="367" type="curve" smooth="yes"/>
      <point x="241" y="502" type="line" smooth="yes"/>
      <point x="241" y="516"/>
      <point x="230" y="527"/>
      <point x="216" y="527" type="curve" smooth="yes"/>
      <point x="127" y="527" type="line" smooth="yes"/>
      <point x="114" y="527"/>
      <point x="102" y="516"/>
      <point x="102" y="502" type="curve" smooth="yes"/>
      <point x="102" y="367" type="line" smooth="yes"/>
      <point x="102" y="353"/>
      <point x="114" y="342"/>
      <point x="127" y="342" type="curve" smooth="yes"/>
      <point x="216" y="342" type="line" smooth="yes"/>
      <point x="230" y="342"/>
      <point x="241" y="353"/>
    </contour>
    <contour>
      <point x="277" y="174" type="curve" smooth="yes"/>
      <point x="355" y="251" type="line"/>
      <point x="355" y="283" type="line" smooth="yes"/>
      <point x="355" y="288"/>
      <point x="351" y="288"/>
      <point x="345" y="283" type="curve" smooth="yes"/>
      <point x="267" y="206" type="line"/>
      <point x="267" y="175" type="line" smooth="yes"/>
      <point x="267" y="169"/>
      <point x="272" y="169"/>
    </contour>
    <contour>
      <point x="277" y="108" type="curve" smooth="yes"/>
      <point x="355" y="184" type="line"/>
      <point x="355" y="216" type="line" smooth="yes"/>
      <point x="355" y="222"/>
      <point x="351" y="222"/>
      <point x="345" y="216" type="curve" smooth="yes"/>
      <point x="267" y="140" type="line"/>
      <point x="267" y="108" type="line" smooth="yes"/>
      <point x="267" y="103"/>
      <point x="272" y="103"/>
    </contour>
    <contour>
      <point x="277" y="41" type="curve" smooth="yes"/>
      <point x="355" y="117" type="line"/>
      <point x="355" y="149" type="line" smooth="yes"/>
      <point x="355" y="155"/>
      <point x="351" y="155"/>
      <point x="345" y="149" type="curve" smooth="yes"/>
      <point x="267" y="73" type="line"/>
      <point x="267" y="41" type="line" smooth="yes"/>
      <point x="267" y="36"/>
      <point x="272" y="36"/>
    </contour>
  </outline>
</glyph>
<glyph name="r" format="1">
  <advance width="433"/>
  <unicode hex="0072"/>
  <outline>
    <contour>
      <point x="389" y="497" type="curve" smooth="yes"/>
      <point x="389" y="372" type="line" smooth="yes"/>
      <point x="389" y="345"/>
      <point x="382" y="320"/>
      <point x="364" y="302" type="curve"/>
      <point x="378" y="302"/>
      <point x="388" y="291"/>
      <point x="388" y="277" type="curve" smooth="yes"/>
      <point x="388" y="24" type="line" smooth="yes"/>
      <point x="388" y="10"/>
      <point x="378" y="-1"/>
      <point x="364" y="-1" type="curve" smooth="yes"/>
      <point x="345" y="-1" type="line" smooth="yes"/>
      <point x="331" y="-1"/>
      <point x="319" y="10"/>
      <point x="319" y="24" type="curve" smooth="yes"/>
      <point x="319" y="223" type="line"/>
      <point x="282" y="223" type="line" smooth="yes"/>
      <point x="268" y="223"/>
      <point x="257" y="234"/>
      <point x="257" y="248" type="curve" smooth="yes"/>
      <point x="256" y="272" type="line"/>
      <point x="181" y="272" type="line"/>
      <point x="181" y="-1" type="line"/>
      <point x="74" y="-1" type="line" smooth="yes"/>
      <point x="60" y="-1"/>
      <point x="48" y="10"/>
      <point x="48" y="24" type="curve" smooth="yes"/>
      <point x="48" y="317" type="line" smooth="yes"/>
      <point x="48" y="331"/>
      <point x="59" y="342"/>
      <point x="73" y="342" type="curve" smooth="yes"/>
      <point x="111" y="342" type="line"/>
      <point x="111" y="463" type="line"/>
      <point x="73" y="463" type="line" smooth="yes"/>
      <point x="59" y="463"/>
      <point x="48" y="475"/>
      <point x="48" y="488" type="curve" smooth="yes"/>
      <point x="48" y="571" type="line" smooth="yes"/>
      <point x="48" y="585"/>
      <point x="59" y="596"/>
      <point x="73" y="596" type="curve" smooth="yes"/>
      <point x="155" y="596" type="line" smooth="yes"/>
      <point x="160" y="596"/>
      <point x="166" y="593"/>
      <point x="172" y="589" type="curve"/>
      <point x="184" y="594"/>
      <point x="197" y="597"/>
      <point x="212" y="597" type="curve" smooth="yes"/>
      <point x="289" y="597" type="line" smooth="yes"/>
      <point x="345" y="597"/>
      <point x="389" y="552"/>
    </contour>
    <contour>
      <point x="320" y="367" type="curve" smooth="yes"/>
      <point x="320" y="502" type="line" smooth="yes"/>
      <point x="320" y="516"/>
      <point x="309" y="527"/>
      <point x="295" y="527" type="curve" smooth="yes"/>
      <point x="206" y="527" type="line" smooth="yes"/>
      <point x="192" y="527"/>
      <point x="181" y="516"/>
      <point x="181" y="502" type="curve" smooth="yes"/>
      <point x="181" y="367" type="line" smooth="yes"/>
      <point x="181" y="353"/>
      <point x="192" y="342"/>
      <point x="206" y="342" type="curve" smooth="yes"/>
      <point x="295" y="342" type="line" smooth="yes"/>
      <point x="309" y="342"/>
      <point x="320" y="353"/>
    </contour>
    <contour>
      <point x="80" y="174" type="curve" smooth="yes"/>
      <point x="158" y="251" type="line"/>
      <point x="158" y="283" type="line" smooth="yes"/>
      <point x="158" y="288"/>
      <point x="154" y="288"/>
      <point x="148" y="283" type="curve" smooth="yes"/>
      <point x="70" y="206" type="line"/>
      <point x="70" y="175" type="line" smooth="yes"/>
      <point x="70" y="169"/>
      <point x="75" y="169"/>
    </contour>
    <contour>
      <point x="80" y="108" type="curve" smooth="yes"/>
      <point x="158" y="184" type="line"/>
      <point x="158" y="216" type="line" smooth="yes"/>
      <point x="158" y="222"/>
      <point x="154" y="222"/>
      <point x="148" y="216" type="curve" smooth="yes"/>
      <point x="70" y="140" type="line"/>
      <point x="70" y="108" type="line" smooth="yes"/>
      <point x="70" y="103"/>
      <point x="75" y="103"/>
    </contour>
    <contour>
      <point x="80" y="41" type="curve" smooth="yes"/>
      <point x="158" y="117" type="line"/>
      <point x="158" y="149" type="line" smooth="yes"/>
      <point x="158" y="155"/>
      <point x="154" y="155"/>
      <point x="148" y="149" type="curve" smooth="yes"/>
      <point x="70" y="73" type="line"/>
      <point x="70" y="41" type="line" smooth="yes"/>
      <point x="70" y="36"/>
      <point x="75" y="36"/>
    </contour>
  </outline>
</glyph>
<glyph name="s" format="1">
  <advance width="413"/>
  <unicode hex="0073"/>
  <outline>
    <contour>
      <point x="378" y="242" type="curve" smooth="yes"/>
      <point x="378" y="99" type="line" smooth="yes"/>
      <point x="378" y="44"/>
      <point x="334" y="-1"/>
      <point x="279" y="-1" type="curve" smooth="yes"/>
      <point x="64" y="-1" type="line" smooth="yes"/>
      <point x="50" y="-1"/>
      <point x="39" y="10"/>
      <point x="39" y="24" type="curve" smooth="yes"/>
      <point x="39" y="172" type="line" smooth="yes"/>
      <point x="39" y="186"/>
      <point x="50" y="197"/>
      <point x="64" y="197" type="curve" smooth="yes"/>
      <point x="146" y="197" type="line" smooth="yes"/>
      <point x="159" y="197"/>
      <point x="171" y="186"/>
      <point x="171" y="172" type="curve" smooth="yes"/>
      <point x="171" y="69" type="line"/>
      <point x="283" y="69" type="line" smooth="yes"/>
      <point x="296" y="69"/>
      <point x="308" y="80"/>
      <point x="308" y="94" type="curve" smooth="yes"/>
      <point x="308" y="247" type="line" smooth="yes"/>
      <point x="308" y="261"/>
      <point x="296" y="272"/>
      <point x="283" y="272" type="curve" smooth="yes"/>
      <point x="161" y="271" type="line" smooth="yes"/>
      <point x="106" y="271"/>
      <point x="61" y="316"/>
      <point x="61" y="371" type="curve" smooth="yes"/>
      <point x="61" y="497" type="line" smooth="yes"/>
      <point x="61" y="552"/>
      <point x="105" y="597"/>
      <point x="161" y="597" type="curve" smooth="yes"/>
      <point x="213" y="597" type="line" smooth="yes"/>
      <point x="268" y="597"/>
      <point x="313" y="552"/>
      <point x="313" y="497" type="curve" smooth="yes"/>
      <point x="313" y="400" type="line" smooth="yes"/>
      <point x="313" y="387"/>
      <point x="301" y="375"/>
      <point x="288" y="375" type="curve" smooth="yes"/>
      <point x="269" y="375" type="line" smooth="yes"/>
      <point x="255" y="375"/>
      <point x="244" y="387"/>
      <point x="244" y="400" type="curve" smooth="yes"/>
      <point x="244" y="502" type="line" smooth="yes"/>
      <point x="244" y="516"/>
      <point x="232" y="527"/>
      <point x="219" y="527" type="curve" smooth="yes"/>
      <point x="155" y="527" type="line" smooth="yes"/>
      <point x="141" y="527"/>
      <point x="130" y="516"/>
      <point x="130" y="502" type="curve" smooth="yes"/>
      <point x="130" y="366" type="line" smooth="yes"/>
      <point x="130" y="353"/>
      <point x="142" y="341"/>
      <point x="156" y="341" type="curve" smooth="yes"/>
      <point x="277" y="341" type="line" smooth="yes"/>
      <point x="332" y="341"/>
      <point x="378" y="297"/>
    </contour>
  </outline>
</glyph>
<glyph name="t" format="1">
  <advance width="593"/>
  <unicode hex="0074"/>
  <outline>
    <contour>
      <point x="579" y="572" type="curve" smooth="yes"/>
      <point x="579" y="488" type="line" smooth="yes"/>
      <point x="579" y="474"/>
      <point x="568" y="463"/>
      <point x="554" y="463" type="curve" smooth="yes"/>
      <point x="472" y="463" type="line" smooth="yes"/>
      <point x="458" y="463"/>
      <point x="447" y="474"/>
      <point x="447" y="488" type="curve" smooth="yes"/>
      <point x="447" y="522" type="line" smooth="yes"/>
      <point x="447" y="536"/>
      <point x="436" y="547"/>
      <point x="422" y="547" type="curve" smooth="yes"/>
      <point x="376" y="547" type="line"/>
      <point x="376" y="24" type="line" smooth="yes"/>
      <point x="376" y="10"/>
      <point x="365" y="-1"/>
      <point x="351" y="-1" type="curve" smooth="yes"/>
      <point x="245" y="-1" type="line"/>
      <point x="245" y="317" type="line" smooth="yes"/>
      <point x="245" y="331"/>
      <point x="256" y="342"/>
      <point x="270" y="342" type="curve" smooth="yes"/>
      <point x="307" y="342" type="line"/>
      <point x="307" y="463" type="line"/>
      <point x="269" y="463" type="line" smooth="yes"/>
      <point x="256" y="463"/>
      <point x="244" y="474"/>
      <point x="244" y="488" type="curve" smooth="yes"/>
      <point x="244" y="547" type="line"/>
      <point x="198" y="547" type="line" smooth="yes"/>
      <point x="184" y="547"/>
      <point x="173" y="536"/>
      <point x="173" y="522" type="curve" smooth="yes"/>
      <point x="173" y="488" type="line" smooth="yes"/>
      <point x="173" y="474"/>
      <point x="162" y="463"/>
      <point x="148" y="463" type="curve" smooth="yes"/>
      <point x="66" y="463" type="line" smooth="yes"/>
      <point x="52" y="463"/>
      <point x="41" y="474"/>
      <point x="41" y="488" type="curve" smooth="yes"/>
      <point x="41" y="572" type="line" smooth="yes"/>
      <point x="41" y="586"/>
      <point x="52" y="597"/>
      <point x="66" y="597" type="curve" smooth="yes"/>
      <point x="554" y="597" type="line" smooth="yes"/>
      <point x="568" y="597"/>
      <point x="579" y="586"/>
    </contour>
    <contour>
      <point x="278" y="174" type="curve" smooth="yes"/>
      <point x="356" y="251" type="line"/>
      <point x="356" y="283" type="line" smooth="yes"/>
      <point x="356" y="288"/>
      <point x="352" y="288"/>
      <point x="346" y="283" type="curve" smooth="yes"/>
      <point x="268" y="206" type="line"/>
      <point x="268" y="175" type="line" smooth="yes"/>
      <point x="268" y="169"/>
      <point x="273" y="169"/>
    </contour>
    <contour>
      <point x="278" y="108" type="curve" smooth="yes"/>
      <point x="356" y="184" type="line"/>
      <point x="356" y="216" type="line" smooth="yes"/>
      <point x="356" y="222"/>
      <point x="352" y="222"/>
      <point x="346" y="216" type="curve" smooth="yes"/>
      <point x="268" y="140" type="line"/>
      <point x="268" y="108" type="line" smooth="yes"/>
      <point x="268" y="103"/>
      <point x="273" y="103"/>
    </contour>
    <contour>
      <point x="278" y="41" type="curve" smooth="yes"/>
      <point x="356" y="117" type="line"/>
      <point x="356" y="149" type="line" smooth="yes"/>
      <point x="356" y="155"/>
      <point x="352" y="155"/>
      <point x="346" y="149" type="curve" smooth="yes"/>
      <point x="268" y="73" type="line"/>
      <point x="268" y="41" type="line" smooth="yes"/>
      <point x="268" y="36"/>
      <point x="273" y="36"/>
    </contour>
  </outline>
</glyph>
<glyph name="u" format="1">
  <advance width="479"/>
  <unicode hex="0075"/>
  <outline>
    <contour>
      <point x="451" y="572" type="curve" smooth="yes"/>
      <point x="451" y="424" type="line" smooth="yes"/>
      <point x="451" y="410"/>
      <point x="439" y="399"/>
      <point x="426" y="399" type="curve" smooth="yes"/>
      <point x="388" y="399" type="line"/>
      <point x="388" y="99" type="line" smooth="yes"/>
      <point x="388" y="44"/>
      <point x="343" y="-1"/>
      <point x="288" y="-1" type="curve" smooth="yes"/>
      <point x="211" y="-1" type="line" smooth="yes"/>
      <point x="196" y="-1"/>
      <point x="182" y="3"/>
      <point x="170" y="9" type="curve"/>
      <point x="166" y="3"/>
      <point x="163" y="-1"/>
      <point x="156" y="-1" type="curve" smooth="yes"/>
      <point x="74" y="-1" type="line" smooth="yes"/>
      <point x="60" y="-1"/>
      <point x="48" y="10"/>
      <point x="48" y="24" type="curve" smooth="yes"/>
      <point x="48" y="317" type="line" smooth="yes"/>
      <point x="48" y="331"/>
      <point x="60" y="342"/>
      <point x="74" y="342" type="curve" smooth="yes"/>
      <point x="111" y="342" type="line"/>
      <point x="111" y="572" type="line" smooth="yes"/>
      <point x="111" y="586"/>
      <point x="123" y="597"/>
      <point x="137" y="597" type="curve" smooth="yes"/>
      <point x="155" y="597" type="line" smooth="yes"/>
      <point x="169" y="597"/>
      <point x="180" y="586"/>
      <point x="180" y="572" type="curve" smooth="yes"/>
      <point x="180" y="94" type="line" smooth="yes"/>
      <point x="180" y="80"/>
      <point x="191" y="69"/>
      <point x="205" y="69" type="curve" smooth="yes"/>
      <point x="294" y="69" type="line" smooth="yes"/>
      <point x="307" y="69"/>
      <point x="319" y="80"/>
      <point x="319" y="94" type="curve" smooth="yes"/>
      <point x="319" y="572" type="line" smooth="yes"/>
      <point x="319" y="586"/>
      <point x="330" y="597"/>
      <point x="344" y="597" type="curve" smooth="yes"/>
      <point x="426" y="597" type="line" smooth="yes"/>
      <point x="439" y="597"/>
      <point x="451" y="586"/>
    </contour>
    <contour>
      <point x="81" y="174" type="curve" smooth="yes"/>
      <point x="159" y="251" type="line"/>
      <point x="159" y="283" type="line" smooth="yes"/>
      <point x="159" y="288"/>
      <point x="155" y="288"/>
      <point x="149" y="283" type="curve" smooth="yes"/>
      <point x="71" y="206" type="line"/>
      <point x="71" y="175" type="line" smooth="yes"/>
      <point x="71" y="169"/>
      <point x="75" y="169"/>
    </contour>
    <contour>
      <point x="81" y="108" type="curve" smooth="yes"/>
      <point x="159" y="184" type="line"/>
      <point x="159" y="216" type="line" smooth="yes"/>
      <point x="159" y="222"/>
      <point x="155" y="222"/>
      <point x="149" y="216" type="curve" smooth="yes"/>
      <point x="71" y="140" type="line"/>
      <point x="71" y="108" type="line" smooth="yes"/>
      <point x="71" y="103"/>
      <point x="75" y="103"/>
    </contour>
    <contour>
      <point x="81" y="41" type="curve" smooth="yes"/>
      <point x="159" y="117" type="line"/>
      <point x="159" y="149" type="line" smooth="yes"/>
      <point x="159" y="155"/>
      <point x="155" y="155"/>
      <point x="149" y="149" type="curve" smooth="yes"/>
      <point x="71" y="73" type="line"/>
      <point x="71" y="41" type="line" smooth="yes"/>
      <point x="71" y="36"/>
      <point x="75" y="36"/>
    </contour>
  </outline>
</glyph>
<glyph name="z" format="1">
  <advance width="443"/>
  <unicode hex="007A"/>
  <outline>
    <contour>
      <point x="408" y="172" type="curve" smooth="yes"/>
      <point x="408" y="24" type="line" smooth="yes"/>
      <point x="408" y="10"/>
      <point x="397" y="-1"/>
      <point x="383" y="-1" type="curve" smooth="yes"/>
      <point x="143" y="-1" type="line" smooth="yes"/>
      <point x="88" y="-1"/>
      <point x="44" y="44"/>
      <point x="44" y="99" type="curve" smooth="yes"/>
      <point x="44" y="242" type="line" smooth="yes"/>
      <point x="44" y="297"/>
      <point x="90" y="341"/>
      <point x="145" y="341" type="curve" smooth="yes"/>
      <point x="291" y="341" type="line" smooth="yes"/>
      <point x="305" y="341"/>
      <point x="317" y="353"/>
      <point x="317" y="366" type="curve" smooth="yes"/>
      <point x="317" y="502" type="line" smooth="yes"/>
      <point x="317" y="516"/>
      <point x="305" y="527"/>
      <point x="292" y="527" type="curve" smooth="yes"/>
      <point x="196" y="527" type="line" smooth="yes"/>
      <point x="182" y="527"/>
      <point x="171" y="512"/>
      <point x="171" y="499" type="curve" smooth="yes"/>
      <point x="171" y="465" type="line" smooth="yes"/>
      <point x="171" y="451"/>
      <point x="160" y="440"/>
      <point x="146" y="440" type="curve" smooth="yes"/>
      <point x="64" y="440" type="line" smooth="yes"/>
      <point x="50" y="440"/>
      <point x="39" y="451"/>
      <point x="39" y="465" type="curve" smooth="yes"/>
      <point x="39" y="573" type="line" smooth="yes"/>
      <point x="39" y="586"/>
      <point x="50" y="598"/>
      <point x="64" y="598" type="curve" smooth="yes"/>
      <point x="286" y="597" type="line" smooth="yes"/>
      <point x="341" y="597"/>
      <point x="386" y="552"/>
      <point x="386" y="497" type="curve" smooth="yes"/>
      <point x="386" y="371" type="line" smooth="yes"/>
      <point x="386" y="316"/>
      <point x="341" y="271"/>
      <point x="286" y="271" type="curve" smooth="yes"/>
      <point x="139" y="271" type="line" smooth="yes"/>
      <point x="125" y="271"/>
      <point x="114" y="260"/>
      <point x="114" y="246" type="curve" smooth="yes"/>
      <point x="114" y="94" type="line" smooth="yes"/>
      <point x="114" y="80"/>
      <point x="125" y="69"/>
      <point x="139" y="69" type="curve" smooth="yes"/>
      <point x="276" y="69" type="line"/>
      <point x="276" y="172" type="line" smooth="yes"/>
      <point x="276" y="186"/>
      <point x="287" y="197"/>
      <point x="301" y="197" type="curve" smooth="yes"/>
      <point x="383" y="197" type="line" smooth="yes"/>
      <point x="397" y="197"/>
      <point x="408" y="186"/>
    </contour>
  </outline>
</glyph>
